<svg width="103" height="62" viewBox="0 0 103 62" fill="none" xmlns="http://www.w3.org/2000/svg">
<path d="M17.964 35.536H8.532L7.02 40H0.576L9.72 14.728H16.848L25.992 40H19.476L17.964 35.536ZM16.38 30.784L13.248 21.532L10.152 30.784H16.38ZM59.8649 15.52C60.5129 15.544 60.8369 15.712 60.8369 16.024C60.8369 16.264 60.6329 16.576 60.2249 16.96C59.8409 17.32 59.3849 17.644 58.8569 17.932C58.3529 18.22 57.9449 18.364 57.6329 18.364H56.6249C57.0569 20.308 57.2729 21.94 57.2729 23.26C57.2729 23.788 57.2369 24.292 57.1649 24.772C57.0209 25.78 56.3249 26.716 55.0769 27.58C56.0849 28.108 56.6729 28.816 56.8409 29.704C57.0089 30.568 57.0929 31.576 57.0929 32.728C57.0929 33.64 57.0449 34.912 56.9489 36.544C57.2369 36.496 57.6689 36.4 58.2449 36.256C58.5329 36.184 58.7969 36.148 59.0369 36.148C59.5169 36.148 59.8769 36.268 60.1169 36.508C60.3809 36.748 60.5129 37.06 60.5129 37.444C60.5129 37.876 60.3449 38.296 60.0089 38.704C59.6969 39.112 59.2649 39.412 58.7129 39.604C57.2249 40.084 55.5329 40.36 53.6369 40.432C53.1809 40.456 52.7609 40.336 52.3769 40.072C52.0169 39.832 51.8369 39.496 51.8369 39.064C51.8609 37.672 51.8729 35.584 51.8729 32.8C51.8729 32.608 51.8849 32.428 51.9089 32.26C51.9329 32.092 51.9449 31.924 51.9449 31.756C51.9449 31.372 51.8489 31.048 51.6569 30.784C51.4889 30.592 51.0089 30.376 50.2169 30.136C49.4489 29.872 48.9809 29.716 48.8129 29.668C48.3569 29.476 48.1289 29.176 48.1289 28.768C48.1289 28.408 48.2609 28.048 48.5249 27.688C48.8129 27.304 49.1129 27.028 49.4249 26.86L50.3249 26.392C50.8289 26.128 51.2009 25.9 51.4409 25.708C51.7049 25.516 51.8969 25.264 52.0169 24.952C52.1609 24.616 52.2209 24.184 52.1969 23.656C52.0529 21.688 51.7409 19.66 51.2609 17.572C51.2369 17.5 51.2249 17.404 51.2249 17.284C51.2249 16.66 51.5969 16.144 52.3409 15.736C53.0849 15.304 53.8289 15.088 54.5729 15.088C54.7649 15.088 54.9089 15.1 55.0049 15.124C56.4209 15.34 58.0409 15.472 59.8649 15.52Z" fill="#2096F0"/>
<path d="M32.735 39.964C31.607 39.94 31.043 39.592 31.043 38.92C31.043 38.584 31.199 38.212 31.511 37.804C31.847 37.396 32.255 37.048 32.735 36.76C33.239 36.472 33.731 36.328 34.211 36.328L35.363 36.4C35.339 35.944 35.279 35.26 35.183 34.348C35.039 33.196 34.967 32.32 34.967 31.72C34.967 31.384 34.979 31.132 35.003 30.964C35.051 30.388 35.231 29.836 35.543 29.308C35.879 28.756 36.323 28.156 36.875 27.508C35.363 27.196 34.439 26.596 34.103 25.708C34.007 25.444 33.959 25.144 33.959 24.808C33.959 24.424 34.031 23.872 34.175 23.152C34.199 23.032 34.235 22.852 34.283 22.612C34.331 22.348 34.355 22.132 34.355 21.964C34.403 21.244 34.427 20.716 34.427 20.38C34.427 19.66 34.391 18.94 34.319 18.22C33.503 18.148 32.267 18.088 30.611 18.04C29.963 18.016 29.639 17.836 29.639 17.5C29.639 17.26 29.831 16.96 30.215 16.6C30.599 16.24 31.043 15.928 31.547 15.664C32.051 15.376 32.459 15.232 32.771 15.232H34.355C35.435 15.232 36.227 15.184 36.731 15.088C36.875 15.064 37.079 15.052 37.343 15.052C38.375 15.052 38.939 15.448 39.035 16.24C39.179 17.488 39.251 18.724 39.251 19.948C39.251 20.692 39.239 21.244 39.215 21.604C39.191 21.772 39.143 22.036 39.071 22.396C39.023 22.756 38.999 23.056 38.999 23.296C38.999 23.536 39.035 23.716 39.107 23.836C39.299 24.124 39.707 24.268 40.331 24.268C40.979 24.244 41.327 24.232 41.375 24.232C41.879 24.256 42.299 24.4 42.635 24.664C42.971 24.904 43.139 25.216 43.139 25.6C43.139 25.912 43.019 26.224 42.779 26.536L41.879 27.688C41.255 28.456 40.787 29.128 40.475 29.704C40.187 30.256 40.043 30.916 40.043 31.684C40.043 32.044 40.067 32.464 40.115 32.944C40.163 33.424 40.199 33.772 40.223 33.988C40.367 34.996 40.439 35.776 40.439 36.328C40.439 36.712 40.403 37.108 40.331 37.516C40.235 37.996 40.007 38.428 39.647 38.812C39.287 39.172 38.867 39.424 38.387 39.568C37.475 39.856 36.311 40 34.895 40L32.735 39.964Z" fill="#1C1B1F"/>
<path d="M66.32 40C66.4133 39.9733 66.4733 39.8733 66.5 39.7C66.5267 39.5133 66.4667 39.22 66.32 38.82C66.2667 38.6733 66.14 38.3733 65.94 37.92C65.7533 37.4667 65.52 36.92 65.24 36.28C64.9733 35.6267 64.6867 34.94 64.38 34.22C64.0733 33.5 63.7733 32.8 63.48 32.12C63.1867 31.44 62.9267 30.84 62.7 30.32C62.4867 29.8 62.3267 29.4267 62.22 29.2C62.0467 28.7733 61.86 28.4733 61.66 28.3C61.46 28.1133 61.3067 28.0133 61.2 28H64.82C64.7267 28.0133 64.6667 28.1133 64.64 28.3C64.6267 28.4867 64.6933 28.8 64.84 29.24C64.9067 29.4133 65.0133 29.72 65.16 30.16C65.32 30.6 65.5133 31.1267 65.74 31.74C65.9667 32.34 66.2067 32.9933 66.46 33.7C66.7133 34.3933 66.9733 35.1 67.24 35.82C67.5067 36.5267 67.7533 37.2 67.98 37.84H68.02C68.2333 37.2267 68.4533 36.5733 68.68 35.88C68.92 35.1733 69.1533 34.4733 69.38 33.78C69.6067 33.0733 69.82 32.42 70.02 31.82C70.22 31.2067 70.3933 30.6733 70.54 30.22C70.6867 29.7667 70.7867 29.44 70.84 29.24C70.96 28.8 71.0067 28.4867 70.98 28.3C70.9533 28.1133 70.9067 28.0133 70.84 28H74.66C74.58 28 74.5267 28.0933 74.5 28.28C74.4733 28.4667 74.5267 28.7933 74.66 29.26C74.7133 29.4333 74.8067 29.74 74.94 30.18C75.0867 30.62 75.26 31.1467 75.46 31.76C75.66 32.36 75.8733 33.0133 76.1 33.72C76.34 34.4133 76.5733 35.12 76.8 35.84C77.04 36.5467 77.2667 37.2133 77.48 37.84H77.52C77.76 37.2 78.0133 36.5267 78.28 35.82C78.5467 35.1133 78.8067 34.4133 79.06 33.72C79.3267 33.0133 79.5733 32.3533 79.8 31.74C80.0267 31.1267 80.22 30.6 80.38 30.16C80.54 29.72 80.6467 29.4133 80.7 29.24C80.8467 28.7867 80.9 28.4667 80.86 28.28C80.8333 28.0933 80.78 28 80.7 28H84.32C84.2267 28.0133 84.0933 28.12 83.92 28.32C83.7467 28.5067 83.5467 28.8133 83.32 29.24C83.2133 29.44 83.0467 29.7867 82.82 30.28C82.5933 30.76 82.3333 31.3267 82.04 31.98C81.7467 32.6333 81.4467 33.3133 81.14 34.02C80.8333 34.7133 80.54 35.3867 80.26 36.04C79.98 36.68 79.74 37.2467 79.54 37.74C79.3533 38.22 79.2267 38.56 79.16 38.76C79.0267 39.2 78.9733 39.5133 79 39.7C79.0267 39.8867 79.08 39.9867 79.16 40H75.76C75.84 39.9867 75.8933 39.8867 75.92 39.7C75.9467 39.5133 75.8933 39.2 75.76 38.76C75.7067 38.5867 75.6067 38.28 75.46 37.84C75.3133 37.3867 75.1333 36.8533 74.92 36.24C74.7067 35.6133 74.4733 34.9467 74.22 34.24C73.9667 33.52 73.7133 32.8 73.46 32.08C73.2067 31.3467 72.9667 30.6533 72.74 30H72.7C72.4733 30.6533 72.2333 31.3467 71.98 32.08C71.7267 32.8 71.4733 33.52 71.22 34.24C70.98 34.96 70.7533 35.6333 70.54 36.26C70.3267 36.8733 70.1467 37.4 70 37.84C69.8667 38.28 69.7733 38.5867 69.72 38.76C69.6 39.1867 69.5533 39.5 69.58 39.7C69.6067 39.8867 69.6533 39.9867 69.72 40H66.32ZM89.6395 40.2C88.2529 40.2 87.1595 39.9867 86.3595 39.56C85.5729 39.1333 85.0195 38.5533 84.6995 37.82C84.3795 37.0867 84.2195 36.26 84.2195 35.34C84.2195 33.7133 84.6595 32.4933 85.5395 31.68C86.4329 30.8667 87.7329 30.46 89.4395 30.46C90.4795 30.46 91.3529 30.5267 92.0595 30.66C92.7662 30.7933 93.2529 30.92 93.5195 31.04V31.44L93.9195 33.18C93.6529 32.9 93.1462 32.6133 92.3995 32.32C91.6529 32.0133 90.7129 31.86 89.5795 31.86C89.0062 31.86 88.4595 31.96 87.9395 32.16C87.4329 32.3467 87.0195 32.6933 86.6995 33.2C86.3929 33.7067 86.2395 34.4267 86.2395 35.36C86.2395 36.2667 86.4062 36.9733 86.7395 37.48C87.0729 37.9733 87.5329 38.3133 88.1195 38.5C88.7062 38.6867 89.3729 38.78 90.1195 38.78C91.0662 38.78 91.8462 38.6333 92.4595 38.34C93.0862 38.0467 93.5062 37.76 93.7195 37.48V37.88L93.9195 39.24C93.6662 39.4533 93.1662 39.6667 92.4195 39.88C91.6862 40.0933 90.7595 40.2 89.6395 40.2Z" fill="black"/>
<path d="M50.0752 35.8096L50.2197 35.9746H48.0391L49.4648 39.2725L49.5068 39.3701L49.4082 39.4062L47.541 40.0938L47.4521 40.127L47.415 40.0391L45.957 36.6211L44.0596 38.0176L43.9004 38.1348V29H44L44.0752 28.9346L50.0752 35.8096ZM44.7666 36.4131L45.5605 35.8291L46.2275 35.3408L46.3281 35.2666L46.3779 35.3809L46.7119 36.1445V36.1455L47.9277 39.0117L48.3457 38.8506L47.1885 36.1973V36.1963L46.7686 35.2275L46.708 35.0879H48.2812L44.7666 31.0547V36.4131Z" fill="black" stroke="#2096F0" stroke-width="0.2"/>
</svg>
