<svg width="104" height="62" viewBox="0 0 104 62" fill="none" xmlns="http://www.w3.org/2000/svg">
<mask id="path-1-outside-1_616_16" maskUnits="userSpaceOnUse" x="0" y="13" width="63" height="29" fill="black">
<rect fill="white" y="13" width="63" height="29"/>
<path d="M18.964 35.536H9.532L8.02 40H1.576L10.72 14.728H17.848L26.992 40H20.476L18.964 35.536ZM17.38 30.784L14.248 21.532L11.152 30.784H17.38ZM60.8649 15.52C61.5129 15.544 61.8369 15.712 61.8369 16.024C61.8369 16.264 61.6329 16.576 61.2249 16.96C60.8409 17.32 60.3849 17.644 59.8569 17.932C59.3529 18.22 58.9449 18.364 58.6329 18.364H57.6249C58.0569 20.308 58.2729 21.94 58.2729 23.26C58.2729 23.788 58.2369 24.292 58.1649 24.772C58.0209 25.78 57.3249 26.716 56.0769 27.58C57.0849 28.108 57.6729 28.816 57.8409 29.704C58.0089 30.568 58.0929 31.576 58.0929 32.728C58.0929 33.64 58.0449 34.912 57.9489 36.544C58.2369 36.496 58.6689 36.4 59.2449 36.256C59.5329 36.184 59.7969 36.148 60.0369 36.148C60.5169 36.148 60.8769 36.268 61.1169 36.508C61.3809 36.748 61.5129 37.06 61.5129 37.444C61.5129 37.876 61.3449 38.296 61.0089 38.704C60.6969 39.112 60.2649 39.412 59.7129 39.604C58.2249 40.084 56.5329 40.36 54.6369 40.432C54.1809 40.456 53.7609 40.336 53.3769 40.072C53.0169 39.832 52.8369 39.496 52.8369 39.064C52.8609 37.672 52.8729 35.584 52.8729 32.8C52.8729 32.608 52.8849 32.428 52.9089 32.26C52.9329 32.092 52.9449 31.924 52.9449 31.756C52.9449 31.372 52.8489 31.048 52.6569 30.784C52.4889 30.592 52.0089 30.376 51.2169 30.136C50.4489 29.872 49.9809 29.716 49.8129 29.668C49.3569 29.476 49.1289 29.176 49.1289 28.768C49.1289 28.408 49.2609 28.048 49.5249 27.688C49.8129 27.304 50.1129 27.028 50.4249 26.86L51.3249 26.392C51.8289 26.128 52.2009 25.9 52.4409 25.708C52.7049 25.516 52.8969 25.264 53.0169 24.952C53.1609 24.616 53.2209 24.184 53.1969 23.656C53.0529 21.688 52.7409 19.66 52.2609 17.572C52.2369 17.5 52.2249 17.404 52.2249 17.284C52.2249 16.66 52.5969 16.144 53.3409 15.736C54.0849 15.304 54.8289 15.088 55.5729 15.088C55.7649 15.088 55.9089 15.1 56.0049 15.124C57.4209 15.34 59.0409 15.472 60.8649 15.52Z"/>
<path d="M33.735 39.964C32.607 39.94 32.043 39.592 32.043 38.92C32.043 38.584 32.199 38.212 32.511 37.804C32.847 37.396 33.255 37.048 33.735 36.76C34.239 36.472 34.731 36.328 35.211 36.328L36.363 36.4C36.339 35.944 36.279 35.26 36.183 34.348C36.039 33.196 35.967 32.32 35.967 31.72C35.967 31.384 35.979 31.132 36.003 30.964C36.051 30.388 36.231 29.836 36.543 29.308C36.879 28.756 37.323 28.156 37.875 27.508C36.363 27.196 35.439 26.596 35.103 25.708C35.007 25.444 34.959 25.144 34.959 24.808C34.959 24.424 35.031 23.872 35.175 23.152C35.199 23.032 35.235 22.852 35.283 22.612C35.331 22.348 35.355 22.132 35.355 21.964C35.403 21.244 35.427 20.716 35.427 20.38C35.427 19.66 35.391 18.94 35.319 18.22C34.503 18.148 33.267 18.088 31.611 18.04C30.963 18.016 30.639 17.836 30.639 17.5C30.639 17.26 30.831 16.96 31.215 16.6C31.599 16.24 32.043 15.928 32.547 15.664C33.051 15.376 33.459 15.232 33.771 15.232H35.355C36.435 15.232 37.227 15.184 37.731 15.088C37.875 15.064 38.079 15.052 38.343 15.052C39.375 15.052 39.939 15.448 40.035 16.24C40.179 17.488 40.251 18.724 40.251 19.948C40.251 20.692 40.239 21.244 40.215 21.604C40.191 21.772 40.143 22.036 40.071 22.396C40.023 22.756 39.999 23.056 39.999 23.296C39.999 23.536 40.035 23.716 40.107 23.836C40.299 24.124 40.707 24.268 41.331 24.268C41.979 24.244 42.327 24.232 42.375 24.232C42.879 24.256 43.299 24.4 43.635 24.664C43.971 24.904 44.139 25.216 44.139 25.6C44.139 25.912 44.019 26.224 43.779 26.536L42.879 27.688C42.255 28.456 41.787 29.128 41.475 29.704C41.187 30.256 41.043 30.916 41.043 31.684C41.043 32.044 41.067 32.464 41.115 32.944C41.163 33.424 41.199 33.772 41.223 33.988C41.367 34.996 41.439 35.776 41.439 36.328C41.439 36.712 41.403 37.108 41.331 37.516C41.235 37.996 41.007 38.428 40.647 38.812C40.287 39.172 39.867 39.424 39.387 39.568C38.475 39.856 37.311 40 35.895 40L33.735 39.964Z"/>
</mask>
<path d="M18.964 35.536H9.532L8.02 40H1.576L10.72 14.728H17.848L26.992 40H20.476L18.964 35.536ZM17.38 30.784L14.248 21.532L11.152 30.784H17.38ZM60.8649 15.52C61.5129 15.544 61.8369 15.712 61.8369 16.024C61.8369 16.264 61.6329 16.576 61.2249 16.96C60.8409 17.32 60.3849 17.644 59.8569 17.932C59.3529 18.22 58.9449 18.364 58.6329 18.364H57.6249C58.0569 20.308 58.2729 21.94 58.2729 23.26C58.2729 23.788 58.2369 24.292 58.1649 24.772C58.0209 25.78 57.3249 26.716 56.0769 27.58C57.0849 28.108 57.6729 28.816 57.8409 29.704C58.0089 30.568 58.0929 31.576 58.0929 32.728C58.0929 33.64 58.0449 34.912 57.9489 36.544C58.2369 36.496 58.6689 36.4 59.2449 36.256C59.5329 36.184 59.7969 36.148 60.0369 36.148C60.5169 36.148 60.8769 36.268 61.1169 36.508C61.3809 36.748 61.5129 37.06 61.5129 37.444C61.5129 37.876 61.3449 38.296 61.0089 38.704C60.6969 39.112 60.2649 39.412 59.7129 39.604C58.2249 40.084 56.5329 40.36 54.6369 40.432C54.1809 40.456 53.7609 40.336 53.3769 40.072C53.0169 39.832 52.8369 39.496 52.8369 39.064C52.8609 37.672 52.8729 35.584 52.8729 32.8C52.8729 32.608 52.8849 32.428 52.9089 32.26C52.9329 32.092 52.9449 31.924 52.9449 31.756C52.9449 31.372 52.8489 31.048 52.6569 30.784C52.4889 30.592 52.0089 30.376 51.2169 30.136C50.4489 29.872 49.9809 29.716 49.8129 29.668C49.3569 29.476 49.1289 29.176 49.1289 28.768C49.1289 28.408 49.2609 28.048 49.5249 27.688C49.8129 27.304 50.1129 27.028 50.4249 26.86L51.3249 26.392C51.8289 26.128 52.2009 25.9 52.4409 25.708C52.7049 25.516 52.8969 25.264 53.0169 24.952C53.1609 24.616 53.2209 24.184 53.1969 23.656C53.0529 21.688 52.7409 19.66 52.2609 17.572C52.2369 17.5 52.2249 17.404 52.2249 17.284C52.2249 16.66 52.5969 16.144 53.3409 15.736C54.0849 15.304 54.8289 15.088 55.5729 15.088C55.7649 15.088 55.9089 15.1 56.0049 15.124C57.4209 15.34 59.0409 15.472 60.8649 15.52Z" fill="#2096F0"/>
<path d="M33.735 39.964C32.607 39.94 32.043 39.592 32.043 38.92C32.043 38.584 32.199 38.212 32.511 37.804C32.847 37.396 33.255 37.048 33.735 36.76C34.239 36.472 34.731 36.328 35.211 36.328L36.363 36.4C36.339 35.944 36.279 35.26 36.183 34.348C36.039 33.196 35.967 32.32 35.967 31.72C35.967 31.384 35.979 31.132 36.003 30.964C36.051 30.388 36.231 29.836 36.543 29.308C36.879 28.756 37.323 28.156 37.875 27.508C36.363 27.196 35.439 26.596 35.103 25.708C35.007 25.444 34.959 25.144 34.959 24.808C34.959 24.424 35.031 23.872 35.175 23.152C35.199 23.032 35.235 22.852 35.283 22.612C35.331 22.348 35.355 22.132 35.355 21.964C35.403 21.244 35.427 20.716 35.427 20.38C35.427 19.66 35.391 18.94 35.319 18.22C34.503 18.148 33.267 18.088 31.611 18.04C30.963 18.016 30.639 17.836 30.639 17.5C30.639 17.26 30.831 16.96 31.215 16.6C31.599 16.24 32.043 15.928 32.547 15.664C33.051 15.376 33.459 15.232 33.771 15.232H35.355C36.435 15.232 37.227 15.184 37.731 15.088C37.875 15.064 38.079 15.052 38.343 15.052C39.375 15.052 39.939 15.448 40.035 16.24C40.179 17.488 40.251 18.724 40.251 19.948C40.251 20.692 40.239 21.244 40.215 21.604C40.191 21.772 40.143 22.036 40.071 22.396C40.023 22.756 39.999 23.056 39.999 23.296C39.999 23.536 40.035 23.716 40.107 23.836C40.299 24.124 40.707 24.268 41.331 24.268C41.979 24.244 42.327 24.232 42.375 24.232C42.879 24.256 43.299 24.4 43.635 24.664C43.971 24.904 44.139 25.216 44.139 25.6C44.139 25.912 44.019 26.224 43.779 26.536L42.879 27.688C42.255 28.456 41.787 29.128 41.475 29.704C41.187 30.256 41.043 30.916 41.043 31.684C41.043 32.044 41.067 32.464 41.115 32.944C41.163 33.424 41.199 33.772 41.223 33.988C41.367 34.996 41.439 35.776 41.439 36.328C41.439 36.712 41.403 37.108 41.331 37.516C41.235 37.996 41.007 38.428 40.647 38.812C40.287 39.172 39.867 39.424 39.387 39.568C38.475 39.856 37.311 40 35.895 40L33.735 39.964Z" fill="white"/>
<path d="M18.964 35.536L19.9111 35.2152L19.6811 34.536H18.964V35.536ZM9.532 35.536V34.536H8.81491L8.58486 35.2152L9.532 35.536ZM8.02 40V41H8.7371L8.96714 40.3208L8.02 40ZM1.576 40L0.63566 39.6598L0.150731 41H1.576V40ZM10.72 14.728V13.728H10.0184L9.77966 14.3878L10.72 14.728ZM17.848 14.728L18.7883 14.3878L18.5496 13.728H17.848V14.728ZM26.992 40V41H28.4173L27.9323 39.6598L26.992 40ZM20.476 40L19.5289 40.3208L19.7589 41H20.476V40ZM17.38 30.784V31.784H18.7743L18.3272 30.4634L17.38 30.784ZM14.248 21.532L15.1952 21.2114L14.2425 18.3971L13.2997 21.2147L14.248 21.532ZM11.152 30.784L10.2037 30.4667L9.76287 31.784H11.152V30.784ZM18.964 35.536V34.536H9.532V35.536V36.536H18.964V35.536ZM9.532 35.536L8.58486 35.2152L7.07286 39.6792L8.02 40L8.96714 40.3208L10.4791 35.8568L9.532 35.536ZM8.02 40V39H1.576V40V41H8.02V40ZM1.576 40L2.51634 40.3402L11.6603 15.0682L10.72 14.728L9.77966 14.3878L0.63566 39.6598L1.576 40ZM10.72 14.728V15.728H17.848V14.728V13.728H10.72V14.728ZM17.848 14.728L16.9077 15.0682L26.0517 40.3402L26.992 40L27.9323 39.6598L18.7883 14.3878L17.848 14.728ZM26.992 40V39H20.476V40V41H26.992V40ZM20.476 40L21.4231 39.6792L19.9111 35.2152L18.964 35.536L18.0169 35.8568L19.5289 40.3208L20.476 40ZM17.38 30.784L18.3272 30.4634L15.1952 21.2114L14.248 21.532L13.3008 21.8526L16.4328 31.1046L17.38 30.784ZM14.248 21.532L13.2997 21.2147L10.2037 30.4667L11.152 30.784L12.1003 31.1013L15.1963 21.8493L14.248 21.532ZM11.152 30.784V31.784H17.38V30.784V29.784H11.152V30.784ZM33.735 39.964L33.7137 40.9638L33.7183 40.9639L33.735 39.964ZM32.511 37.804L31.739 37.1683L31.7276 37.1822L31.7166 37.1965L32.511 37.804ZM33.735 36.76L33.2388 35.8918L33.2296 35.897L33.2205 35.9025L33.735 36.76ZM35.211 36.328L35.2733 35.3299L35.2422 35.328H35.211V36.328ZM36.363 36.4L36.3006 37.3981L37.4206 37.4681L37.3616 36.3474L36.363 36.4ZM36.183 34.348L37.1775 34.2433L37.1765 34.2336L37.1752 34.224L36.183 34.348ZM36.003 30.964L36.9929 31.1054L36.9971 31.0763L36.9995 31.047L36.003 30.964ZM36.543 29.308L35.6887 28.788L35.682 28.7993L36.543 29.308ZM37.875 27.508L38.6362 28.1565L39.732 26.8701L38.0771 26.5286L37.875 27.508ZM35.103 25.708L34.1631 26.0498L34.1677 26.0619L35.103 25.708ZM35.175 23.152L34.1944 22.9559L34.1944 22.9559L35.175 23.152ZM35.283 22.612L36.2635 22.8081L36.2653 22.7995L36.2668 22.7909L35.283 22.612ZM35.355 21.964L34.3572 21.8975L34.355 21.9307V21.964H35.355ZM35.319 18.22L36.314 18.1205L36.2316 17.2966L35.4069 17.2239L35.319 18.22ZM31.611 18.04L31.574 19.0393L31.582 19.0396L31.611 18.04ZM32.547 15.664L33.011 16.5498L33.0272 16.5413L33.0431 16.5322L32.547 15.664ZM37.731 15.088L37.5666 14.1016L37.5552 14.1035L37.5439 14.1057L37.731 15.088ZM40.035 16.24L41.0284 16.1254L41.0277 16.1197L40.035 16.24ZM40.215 21.604L41.2049 21.7454L41.2102 21.7081L41.2128 21.6705L40.215 21.604ZM40.071 22.396L39.0904 22.1999L39.084 22.2317L39.0797 22.2638L40.071 22.396ZM40.107 23.836L39.2495 24.3505L39.2617 24.3709L39.2749 24.3907L40.107 23.836ZM41.331 24.268V25.268H41.3495L41.368 25.2673L41.331 24.268ZM42.375 24.232L42.4225 23.2331L42.3988 23.232H42.375V24.232ZM43.635 24.664L43.0171 25.4503L43.0351 25.4644L43.0537 25.4777L43.635 24.664ZM43.779 26.536L44.567 27.1517L44.5716 27.1457L43.779 26.536ZM42.879 27.688L43.6551 28.3186L43.6611 28.3112L43.667 28.3036L42.879 27.688ZM41.475 29.704L40.5957 29.2277L40.592 29.2345L40.5884 29.2414L41.475 29.704ZM41.115 32.944L40.1199 33.0435L40.1199 33.0435L41.115 32.944ZM41.223 33.988L40.2291 34.0984L40.2308 34.114L40.233 34.1294L41.223 33.988ZM41.331 37.516L42.3115 37.7121L42.3138 37.701L42.3158 37.6898L41.331 37.516ZM40.647 38.812L41.3541 39.5191L41.3655 39.5077L41.3765 39.4959L40.647 38.812ZM39.387 39.568L39.0996 38.6102L39.0927 38.6122L39.0858 38.6144L39.387 39.568ZM35.895 40L35.8783 40.9999L35.8866 41H35.895V40ZM33.735 39.964L33.7562 38.9642C33.521 38.9592 33.3416 38.9376 33.2094 38.9086C33.0759 38.8792 33.0121 38.847 32.9911 38.834C32.976 38.8247 33.0003 38.8368 33.0238 38.8794C33.047 38.9213 33.043 38.9449 33.043 38.92H32.043H31.043C31.043 39.5969 31.3587 40.1768 31.9409 40.536C32.4468 40.8482 33.0817 40.9503 33.7137 40.9638L33.735 39.964ZM32.043 38.92H33.043C33.043 38.8926 33.06 38.7322 33.3053 38.4115L32.511 37.804L31.7166 37.1965C31.3379 37.6918 31.043 38.2754 31.043 38.92H32.043ZM32.511 37.804L33.2829 38.4397C33.5422 38.1249 33.8615 37.8503 34.2495 37.6175L33.735 36.76L33.2205 35.9025C32.6485 36.2457 32.1518 36.6671 31.739 37.1683L32.511 37.804ZM33.735 36.76L34.2311 37.6282C34.6156 37.4086 34.9381 37.328 35.211 37.328V36.328V35.328C34.5239 35.328 33.8624 35.5354 33.2388 35.8918L33.735 36.76ZM35.211 36.328L35.1486 37.3261L36.3006 37.3981L36.363 36.4L36.4253 35.4019L35.2733 35.3299L35.211 36.328ZM36.363 36.4L37.3616 36.3474C37.3362 35.8643 37.2739 35.1591 37.1775 34.2433L36.183 34.348L35.1885 34.4527C35.2841 35.3609 35.3418 36.0237 35.3644 36.4526L36.363 36.4ZM36.183 34.348L37.1752 34.224C37.0326 33.0826 36.967 32.2563 36.967 31.72H35.967H34.967C34.967 32.3837 35.0454 33.3094 35.1907 34.472L36.183 34.348ZM35.967 31.72H36.967C36.967 31.395 36.9793 31.2007 36.9929 31.1054L36.003 30.964L35.013 30.8226C34.9786 31.0633 34.967 31.373 34.967 31.72H35.967ZM36.003 30.964L36.9995 31.047C37.0342 30.6305 37.1638 30.223 37.4039 29.8167L36.543 29.308L35.682 28.7993C35.2981 29.449 35.0677 30.1455 35.0064 30.881L36.003 30.964ZM36.543 29.308L37.3972 29.8279C37.6986 29.3328 38.1085 28.776 38.6362 28.1565L37.875 27.508L37.1137 26.8595C36.5375 27.536 36.0594 28.1792 35.6888 28.7881L36.543 29.308ZM37.875 27.508L38.0771 26.5286C36.6837 26.2411 36.1914 25.7588 36.0383 25.3541L35.103 25.708L34.1677 26.0619C34.6866 27.4332 36.0422 28.1509 37.6729 28.4874L37.875 27.508ZM35.103 25.708L36.0428 25.3663C35.9935 25.2309 35.959 25.0497 35.959 24.808H34.959H33.959C33.959 25.2383 34.0204 25.6571 34.1632 26.0497L35.103 25.708ZM34.959 24.808H35.959C35.959 24.5249 36.015 24.0506 36.1555 23.3481L35.175 23.152L34.1944 22.9559C34.0469 23.6934 33.959 24.3231 33.959 24.808H34.959ZM35.175 23.152L36.1555 23.3481C36.1795 23.2281 36.2155 23.0481 36.2635 22.8081L35.283 22.612L34.3024 22.4159C34.2544 22.6559 34.2184 22.8359 34.1944 22.9559L35.175 23.152ZM35.283 22.612L36.2668 22.7909C36.32 22.4983 36.355 22.2166 36.355 21.964H35.355H34.355C34.355 22.0474 34.3419 22.1977 34.2991 22.4331L35.283 22.612ZM35.355 21.964L36.3528 22.0305C36.401 21.3075 36.427 20.7514 36.427 20.38H35.427H34.427C34.427 20.6806 34.405 21.1805 34.3572 21.8975L35.355 21.964ZM35.427 20.38H36.427C36.427 19.6266 36.3893 18.8734 36.314 18.1205L35.319 18.22L34.3239 18.3195C34.3926 19.0066 34.427 19.6934 34.427 20.38H35.427ZM35.319 18.22L35.4069 17.2239C34.5602 17.1492 33.3 17.0885 31.6399 17.0404L31.611 18.04L31.582 19.0396C33.2339 19.0875 34.4457 19.1468 35.2311 19.2161L35.319 18.22ZM31.611 18.04L31.648 17.0407C31.5265 17.0362 31.4434 17.025 31.3911 17.0141C31.3367 17.0026 31.337 16.9958 31.3676 17.0128C31.4023 17.0321 31.48 17.0849 31.5466 17.191C31.6163 17.302 31.639 17.4159 31.639 17.5H30.639H29.639C29.639 18.0747 29.9568 18.517 30.3963 18.7612C30.7634 18.9651 31.194 19.0252 31.574 19.0393L31.611 18.04ZM30.639 17.5H31.639C31.639 17.6424 31.5855 17.6962 31.6252 17.6341C31.6608 17.5785 31.7415 17.4771 31.8989 17.3295L31.215 16.6L30.531 15.8705C30.3044 16.0829 30.0971 16.3115 29.9407 16.5559C29.7885 16.7938 29.639 17.1176 29.639 17.5H30.639ZM31.215 16.6L31.8989 17.3295C32.2119 17.0361 32.5806 16.7753 33.011 16.5498L32.547 15.664L32.083 14.7782C31.5054 15.0807 30.986 15.4439 30.531 15.8705L31.215 16.6ZM32.547 15.664L33.0431 16.5322C33.5057 16.2679 33.7264 16.232 33.771 16.232V15.232V14.232C33.1916 14.232 32.5962 14.4841 32.0508 14.7958L32.547 15.664ZM33.771 15.232V16.232H35.355V15.232V14.232H33.771V15.232ZM35.355 15.232V16.232C36.4448 16.232 37.3161 16.185 37.9181 16.0703L37.731 15.088L37.5439 14.1057C37.1378 14.183 36.4251 14.232 35.355 14.232V15.232ZM37.731 15.088L37.8954 16.0744C37.9581 16.0639 38.0976 16.052 38.343 16.052V15.052V14.052C38.0603 14.052 37.7918 14.0641 37.5666 14.1016L37.731 15.088ZM38.343 15.052V16.052C38.7499 16.052 38.9164 16.133 38.9653 16.1674C38.9844 16.1808 38.993 16.1915 39.0011 16.2059C39.0109 16.2236 39.0311 16.2686 39.0422 16.3603L40.035 16.24L41.0277 16.1197C40.9515 15.4911 40.6661 14.9178 40.1146 14.5306C39.5995 14.1689 38.968 14.052 38.343 14.052V15.052ZM40.035 16.24L39.0416 16.3546C39.1813 17.5656 39.251 18.7633 39.251 19.948H40.251H41.251C41.251 18.6847 41.1767 17.4104 41.0284 16.1254L40.035 16.24ZM40.251 19.948H39.251C39.251 20.6879 39.2389 21.2123 39.2172 21.5375L40.215 21.604L41.2128 21.6705C41.2391 21.2757 41.251 20.6961 41.251 19.948H40.251ZM40.215 21.604L39.225 21.4626C39.2052 21.6013 39.1619 21.8422 39.0904 22.1999L40.071 22.396L41.0516 22.5921C41.124 22.2298 41.1767 21.9427 41.2049 21.7454L40.215 21.604ZM40.071 22.396L39.0797 22.2638C39.0285 22.6479 38.999 22.9955 38.999 23.296H39.999H40.999C40.999 23.1165 41.0174 22.8641 41.0622 22.5282L40.071 22.396ZM39.999 23.296H38.999C38.999 23.6034 39.0393 24.0001 39.2495 24.3505L40.107 23.836L40.9645 23.3215C40.9841 23.3543 40.9951 23.3806 41.0006 23.396C41.0061 23.4114 41.0073 23.4185 41.0065 23.4149C41.0058 23.4114 41.0038 23.4 41.0021 23.3793C41.0003 23.3588 40.999 23.3313 40.999 23.296H39.999ZM40.107 23.836L39.2749 24.3907C39.7614 25.1204 40.6344 25.268 41.331 25.268V24.268V23.268C41.0866 23.268 40.9509 23.2386 40.8898 23.217C40.838 23.1987 40.8877 23.2044 40.939 23.2813L40.107 23.836ZM41.331 24.268L41.368 25.2673C41.6917 25.2553 41.9397 25.2464 42.1124 25.2404C42.1989 25.2374 42.2656 25.2352 42.313 25.2338C42.3685 25.2321 42.3816 25.232 42.375 25.232V24.232V23.232C42.3025 23.232 41.9239 23.2454 41.294 23.2687L41.331 24.268ZM42.375 24.232L42.3274 25.2309C42.6624 25.2468 42.8725 25.3366 43.0171 25.4503L43.635 24.664L44.2528 23.8777C43.7255 23.4634 43.0955 23.2652 42.4225 23.2331L42.375 24.232ZM43.635 24.664L43.0537 25.4777C43.1178 25.5235 43.132 25.5512 43.1325 25.5521C43.1334 25.5538 43.1343 25.5557 43.1354 25.5601C43.1366 25.565 43.139 25.5773 43.139 25.6H44.139H45.139C45.139 24.8656 44.7918 24.2614 44.2162 23.8503L43.635 24.664ZM44.139 25.6H43.139C43.139 25.6393 43.1276 25.7427 42.9863 25.9263L43.779 26.536L44.5716 27.1457C44.9104 26.7053 45.139 26.1847 45.139 25.6H44.139ZM43.779 26.536L42.9909 25.9204L42.0909 27.0724L42.879 27.688L43.667 28.3036L44.567 27.1516L43.779 26.536ZM42.879 27.688L42.1029 27.0574C41.4574 27.8518 40.9481 28.5771 40.5957 29.2277L41.475 29.704L42.3543 30.1803C42.6259 29.6789 43.0526 29.0602 43.6551 28.3186L42.879 27.688ZM41.475 29.704L40.5884 29.2414C40.2105 29.9658 40.043 30.7919 40.043 31.684H41.043H42.043C42.043 31.0401 42.1635 30.5462 42.3616 30.1666L41.475 29.704ZM41.043 31.684H40.043C40.043 32.0862 40.0697 32.5408 40.1199 33.0435L41.115 32.944L42.11 32.8445C42.0643 32.3872 42.043 32.0018 42.043 31.684H41.043ZM41.115 32.944L40.1199 33.0435C40.168 33.5239 40.2044 33.8766 40.2291 34.0984L41.223 33.988L42.2169 33.8776C42.1935 33.6674 42.158 33.3241 42.11 32.8445L41.115 32.944ZM41.223 33.988L40.233 34.1294C40.3749 35.1226 40.439 35.8473 40.439 36.328H41.439H42.439C42.439 35.7047 42.359 34.8694 42.2129 33.8466L41.223 33.988ZM41.439 36.328H40.439C40.439 36.6494 40.4088 36.9871 40.3462 37.3422L41.331 37.516L42.3158 37.6898C42.3971 37.2289 42.439 36.7746 42.439 36.328H41.439ZM41.331 37.516L40.3504 37.3199C40.2937 37.6032 40.1599 37.8694 39.9174 38.1281L40.647 38.812L41.3765 39.4959C41.854 38.9866 42.1762 38.3888 42.3115 37.7121L41.331 37.516ZM40.647 38.812L39.9399 38.1049C39.6949 38.3498 39.4185 38.5145 39.0996 38.6102L39.387 39.568L39.6743 40.5258C40.3154 40.3335 40.879 39.9942 41.3541 39.5191L40.647 38.812ZM39.387 39.568L39.0858 38.6144C38.3059 38.8607 37.253 39 35.895 39V40V41C37.369 41 38.644 40.8513 39.6881 40.5216L39.387 39.568ZM35.895 40L35.9116 39.0001L33.7516 38.9641L33.735 39.964L33.7183 40.9639L35.8783 40.9999L35.895 40ZM60.8649 15.52L60.9019 14.5206L60.8912 14.5203L60.8649 15.52ZM61.2249 16.96L61.9089 17.6895L61.9103 17.6882L61.2249 16.96ZM59.8569 17.932L59.3781 17.0541L59.3694 17.0588L59.3608 17.0638L59.8569 17.932ZM57.6249 18.364V17.364H56.3783L56.6487 18.5809L57.6249 18.364ZM58.1649 24.772L57.1759 24.6237L57.175 24.6306L58.1649 24.772ZM56.0769 27.58L55.5077 26.7578L54.1485 27.6988L55.6129 28.4658L56.0769 27.58ZM57.8409 29.704L56.8583 29.8899L56.8593 29.8949L57.8409 29.704ZM57.9489 36.544L56.9506 36.4853L56.877 37.7364L58.1133 37.5304L57.9489 36.544ZM59.2449 36.256L59.4874 37.2261L59.4874 37.2261L59.2449 36.256ZM61.1169 36.508L60.4098 37.2151L60.4266 37.2319L60.4442 37.2479L61.1169 36.508ZM61.0089 38.704L60.237 38.0683L60.2255 38.0822L60.2145 38.0965L61.0089 38.704ZM59.7129 39.604L60.0199 40.5557L60.0307 40.5522L60.0414 40.5485L59.7129 39.604ZM54.6369 40.432L54.599 39.4327L54.5917 39.433L54.5843 39.4334L54.6369 40.432ZM53.3769 40.072L53.9434 39.248L53.9375 39.2439L53.9316 39.2399L53.3769 40.072ZM52.8369 39.064L51.8371 39.0468L51.8369 39.0554V39.064H52.8369ZM52.9089 32.26L53.8989 32.4014L53.8989 32.4014L52.9089 32.26ZM52.6569 30.784L53.4656 30.1958L53.4391 30.1594L53.4095 30.1255L52.6569 30.784ZM51.2169 30.136L50.8918 31.0817L50.9093 31.0877L50.9269 31.093L51.2169 30.136ZM49.8129 29.668L49.4248 30.5896L49.4803 30.613L49.5382 30.6295L49.8129 29.668ZM49.5249 27.688L48.7249 27.088L48.7185 27.0966L49.5249 27.688ZM50.4249 26.86L49.9636 25.9728L49.9572 25.9761L49.9508 25.9795L50.4249 26.86ZM51.3249 26.392L51.7863 27.2792L51.7889 27.2778L51.3249 26.392ZM52.4409 25.708L51.8527 24.8993L51.8342 24.9128L51.8162 24.9271L52.4409 25.708ZM53.0169 24.952L52.0978 24.5581L52.0903 24.5754L52.0836 24.593L53.0169 24.952ZM53.1969 23.656L54.1959 23.6106L54.1952 23.5968L54.1942 23.583L53.1969 23.656ZM52.2609 17.572L53.2355 17.348L53.2247 17.3012L53.2096 17.2558L52.2609 17.572ZM53.3409 15.736L53.8217 16.6128L53.8325 16.6069L53.843 16.6008L53.3409 15.736ZM56.0049 15.124L55.7624 16.0941L55.8078 16.1055L55.8541 16.1126L56.0049 15.124ZM60.8649 15.52L60.8279 16.5193C60.9523 16.5239 61.0395 16.5348 61.0964 16.546C61.1558 16.5578 61.1605 16.5657 61.1336 16.5518C61.1041 16.5365 61.0216 16.4865 60.9473 16.3765C60.8675 16.2583 60.8369 16.1292 60.8369 16.024H61.8369H62.8369C62.8369 15.7628 62.7658 15.4957 62.605 15.2575C62.4497 15.0275 62.2457 14.8755 62.0542 14.7762C61.6957 14.5904 61.2761 14.5345 60.9019 14.5207L60.8649 15.52ZM61.8369 16.024H60.8369C60.8369 15.9423 60.8541 15.8886 60.8607 15.8708C60.867 15.8536 60.8672 15.8598 60.8469 15.8907C60.8039 15.9565 60.7117 16.0697 60.5395 16.2318L61.2249 16.96L61.9103 17.6882C62.1461 17.4663 62.3599 17.2315 62.5209 16.9852C62.6749 16.7497 62.8369 16.4183 62.8369 16.024H61.8369ZM61.2249 16.96L60.541 16.2305C60.2268 16.525 59.842 16.801 59.3781 17.0541L59.8569 17.932L60.3358 18.8099C60.9278 18.487 61.455 18.115 61.9088 17.6895L61.2249 16.96ZM59.8569 17.932L59.3608 17.0638C58.8982 17.3281 58.6775 17.364 58.6329 17.364V18.364V19.364C59.2123 19.364 59.8077 19.1119 60.353 18.8002L59.8569 17.932ZM58.6329 18.364V17.364H57.6249V18.364V19.364H58.6329V18.364ZM57.6249 18.364L56.6487 18.5809C57.072 20.4858 57.2729 22.0398 57.2729 23.26H58.2729H59.2729C59.2729 21.8402 59.0418 20.1302 58.6011 18.1471L57.6249 18.364ZM58.2729 23.26H57.2729C57.2729 23.7426 57.24 24.1968 57.176 24.6237L58.1649 24.772L59.1538 24.9203C59.2338 24.3872 59.2729 23.8334 59.2729 23.26H58.2729ZM58.1649 24.772L57.175 24.6306C57.0862 25.2517 56.6394 25.9743 55.5077 26.7578L56.0769 27.58L56.6461 28.4022C58.0104 27.4577 58.9556 26.3083 59.1549 24.9134L58.1649 24.772ZM56.0769 27.58L55.6129 28.4658C56.427 28.8923 56.7615 29.3782 56.8583 29.8899L57.8409 29.704L58.8235 29.5181C58.5843 28.2538 57.7428 27.3237 56.5409 26.6942L56.0769 27.58ZM57.8409 29.704L56.8593 29.8949C57.012 30.6802 57.0929 31.6217 57.0929 32.728H58.0929H59.0929C59.0929 31.5303 59.0058 30.4558 58.8225 29.5131L57.8409 29.704ZM58.0929 32.728H57.0929C57.0929 33.6109 57.0462 34.8601 56.9506 36.4853L57.9489 36.544L58.9472 36.6027C59.0436 34.9639 59.0929 33.6691 59.0929 32.728H58.0929ZM57.9489 36.544L58.1133 37.5304C58.4424 37.4755 58.9062 37.3714 59.4874 37.2261L59.2449 36.256L59.0024 35.2859C58.4316 35.4286 58.0314 35.5165 57.7845 35.5576L57.9489 36.544ZM59.2449 36.256L59.4874 37.2261C59.714 37.1695 59.8953 37.148 60.0369 37.148V36.148V35.148C59.6986 35.148 59.3518 35.1985 59.0024 35.2859L59.2449 36.256ZM60.0369 36.148V37.148C60.1966 37.148 60.2955 37.1683 60.3507 37.1867C60.3772 37.1955 60.3925 37.2035 60.3999 37.208C60.407 37.2122 60.4094 37.2147 60.4098 37.2151L61.1169 36.508L61.824 35.8009C61.3303 35.3072 60.6711 35.148 60.0369 35.148V36.148ZM61.1169 36.508L60.4442 37.2479C60.4826 37.2828 60.5129 37.3176 60.5129 37.444H61.5129H62.5129C62.5129 36.8024 62.2793 36.2132 61.7896 35.7681L61.1169 36.508ZM61.5129 37.444H60.5129C60.5129 37.5956 60.4596 37.7979 60.237 38.0683L61.0089 38.704L61.7808 39.3397C62.2302 38.7941 62.5129 38.1564 62.5129 37.444H61.5129ZM61.0089 38.704L60.2145 38.0965C60.0373 38.3283 59.7777 38.5227 59.3844 38.6595L59.7129 39.604L60.0414 40.5485C60.7521 40.3013 61.3565 39.8957 61.8033 39.3115L61.0089 38.704ZM59.7129 39.604L59.4059 38.6523C58.0212 39.099 56.4223 39.3635 54.599 39.4327L54.6369 40.432L54.6749 41.4313C56.6435 41.3565 58.4286 41.069 60.0199 40.5557L59.7129 39.604ZM54.6369 40.432L54.5843 39.4334C54.3531 39.4456 54.15 39.3899 53.9434 39.248L53.3769 40.072L52.8104 40.896C53.3719 41.2821 54.0087 41.4664 54.6895 41.4306L54.6369 40.432ZM53.3769 40.072L53.9316 39.2399C53.8698 39.1987 53.8557 39.1722 53.8534 39.1678C53.8511 39.1634 53.8369 39.1375 53.8369 39.064H52.8369H51.8369C51.8369 39.831 52.1845 40.4789 52.8222 40.9041L53.3769 40.072ZM52.8369 39.064L53.8368 39.0812C53.8609 37.6803 53.8729 35.5853 53.8729 32.8H52.8729H51.8729C51.8729 35.5827 51.8609 37.6637 51.8371 39.0468L52.8369 39.064ZM52.8729 32.8H53.8729C53.8729 32.6493 53.8824 32.517 53.8989 32.4014L52.9089 32.26L51.919 32.1186C51.8875 32.339 51.8729 32.5667 51.8729 32.8H52.8729ZM52.9089 32.26L53.8989 32.4014C53.9295 32.1871 53.9449 31.9718 53.9449 31.756H52.9449H51.9449C51.9449 31.8762 51.9363 31.9969 51.919 32.1186L52.9089 32.26ZM52.9449 31.756H53.9449C53.9449 31.1991 53.8028 30.6594 53.4656 30.1958L52.6569 30.784L51.8482 31.3722C51.895 31.4366 51.9449 31.5449 51.9449 31.756H52.9449ZM52.6569 30.784L53.4095 30.1255C53.1749 29.8574 52.8421 29.6835 52.5813 29.5661C52.2866 29.4335 51.9236 29.3052 51.5069 29.179L51.2169 30.136L50.9269 31.093C51.3022 31.2068 51.5752 31.3065 51.7605 31.3899C51.8527 31.4314 51.9093 31.4627 51.9396 31.4817C51.9753 31.5042 51.9494 31.4941 51.9043 31.4425L52.6569 30.784ZM51.2169 30.136L51.542 29.1903C50.7858 28.9304 50.2874 28.7635 50.0876 28.7065L49.8129 29.668L49.5382 30.6295C49.6745 30.6685 50.112 30.8136 50.8918 31.0817L51.2169 30.136ZM49.8129 29.668L50.201 28.7464C50.0853 28.6977 50.0759 28.6674 50.0961 28.6939C50.1066 28.7077 50.1169 28.7267 50.1235 28.7472C50.1299 28.7669 50.1289 28.776 50.1289 28.768H49.1289H48.1289C48.1289 29.1713 48.2463 29.5654 48.5037 29.9041C48.7519 30.2306 49.0845 30.4463 49.4248 30.5896L49.8129 29.668ZM49.1289 28.768H50.1289C50.1289 28.6672 50.1624 28.5096 50.3313 28.2794L49.5249 27.688L48.7185 27.0966C48.3594 27.5864 48.1289 28.1487 48.1289 28.768H49.1289ZM49.5249 27.688L50.3249 28.288C50.5551 27.9811 50.7515 27.8199 50.899 27.7405L50.4249 26.86L49.9508 25.9795C49.4743 26.2361 49.0707 26.6269 48.7249 27.088L49.5249 27.688ZM50.4249 26.86L50.8863 27.7472L51.7863 27.2792L51.3249 26.392L50.8636 25.5048L49.9636 25.9728L50.4249 26.86ZM51.3249 26.392L51.7889 27.2778C52.3105 27.0046 52.7499 26.7414 53.0656 26.4889L52.4409 25.708L51.8162 24.9271C51.6519 25.0586 51.3473 25.2514 50.8609 25.5062L51.3249 26.392ZM52.4409 25.708L53.0291 26.5167C53.453 26.2084 53.7628 25.7985 53.9503 25.311L53.0169 24.952L52.0836 24.593C52.0311 24.7295 51.9568 24.8236 51.8527 24.8993L52.4409 25.708ZM53.0169 24.952L53.9361 25.3459C54.1599 24.8237 54.2239 24.227 54.1959 23.6106L53.1969 23.656L52.1979 23.7014C52.2179 24.141 52.162 24.4083 52.0978 24.5581L53.0169 24.952ZM53.1969 23.656L54.1942 23.583C54.0462 21.56 53.7259 19.4815 53.2355 17.348L52.2609 17.572L51.2863 17.796C51.7559 19.8385 52.0596 21.816 52.1996 23.729L53.1969 23.656ZM52.2609 17.572L53.2096 17.2558C53.2167 17.277 53.2207 17.2935 53.223 17.304C53.2252 17.3145 53.226 17.3208 53.2262 17.322C53.2263 17.3232 53.226 17.3207 53.2256 17.314C53.2252 17.3074 53.2249 17.2975 53.2249 17.284H52.2249H51.2249C51.2249 17.4566 51.2404 17.6727 51.3122 17.8882L52.2609 17.572ZM52.2249 17.284H53.2249C53.2249 17.1539 53.2664 16.9173 53.8217 16.6128L53.3409 15.736L52.8601 14.8592C51.9274 15.3707 51.2249 16.1661 51.2249 17.284H52.2249ZM53.3409 15.736L53.843 16.6008C54.4587 16.2433 55.0313 16.088 55.5729 16.088V15.088V14.088C54.6266 14.088 53.7111 14.3647 52.8388 14.8712L53.3409 15.736ZM55.5729 15.088V16.088C55.6496 16.088 55.7047 16.0905 55.7419 16.0935C55.7822 16.0969 55.7846 16.0997 55.7624 16.0941L56.0049 15.124L56.2474 14.1539C56.029 14.0993 55.7854 14.088 55.5729 14.088V15.088ZM56.0049 15.124L55.8541 16.1126C57.3207 16.3363 58.9836 16.4708 60.8386 16.5197L60.8649 15.52L60.8912 14.5203C59.0982 14.4732 57.5211 14.3437 56.1557 14.1354L56.0049 15.124Z" fill="black" mask="url(#path-1-outside-1_616_16)"/>
<mask id="path-3-outside-2_616_16" maskUnits="userSpaceOnUse" x="61" y="27" width="36" height="15" fill="black">
<rect fill="white" x="61" y="27" width="36" height="15"/>
<path d="M67.32 40C67.4133 39.9733 67.4733 39.8733 67.5 39.7C67.5267 39.5133 67.4667 39.22 67.32 38.82C67.2667 38.6733 67.14 38.3733 66.94 37.92C66.7533 37.4667 66.52 36.92 66.24 36.28C65.9733 35.6267 65.6867 34.94 65.38 34.22C65.0733 33.5 64.7733 32.8 64.48 32.12C64.1867 31.44 63.9267 30.84 63.7 30.32C63.4867 29.8 63.3267 29.4267 63.22 29.2C63.0467 28.7733 62.86 28.4733 62.66 28.3C62.46 28.1133 62.3067 28.0133 62.2 28H65.82C65.7267 28.0133 65.6667 28.1133 65.64 28.3C65.6267 28.4867 65.6933 28.8 65.84 29.24C65.9067 29.4133 66.0133 29.72 66.16 30.16C66.32 30.6 66.5133 31.1267 66.74 31.74C66.9667 32.34 67.2067 32.9933 67.46 33.7C67.7133 34.3933 67.9733 35.1 68.24 35.82C68.5067 36.5267 68.7533 37.2 68.98 37.84H69.02C69.2333 37.2267 69.4533 36.5733 69.68 35.88C69.92 35.1733 70.1533 34.4733 70.38 33.78C70.6067 33.0733 70.82 32.42 71.02 31.82C71.22 31.2067 71.3933 30.6733 71.54 30.22C71.6867 29.7667 71.7867 29.44 71.84 29.24C71.96 28.8 72.0067 28.4867 71.98 28.3C71.9533 28.1133 71.9067 28.0133 71.84 28H75.66C75.58 28 75.5267 28.0933 75.5 28.28C75.4733 28.4667 75.5267 28.7933 75.66 29.26C75.7133 29.4333 75.8067 29.74 75.94 30.18C76.0867 30.62 76.26 31.1467 76.46 31.76C76.66 32.36 76.8733 33.0133 77.1 33.72C77.34 34.4133 77.5733 35.12 77.8 35.84C78.04 36.5467 78.2667 37.2133 78.48 37.84H78.52C78.76 37.2 79.0133 36.5267 79.28 35.82C79.5467 35.1133 79.8067 34.4133 80.06 33.72C80.3267 33.0133 80.5733 32.3533 80.8 31.74C81.0267 31.1267 81.22 30.6 81.38 30.16C81.54 29.72 81.6467 29.4133 81.7 29.24C81.8467 28.7867 81.9 28.4667 81.86 28.28C81.8333 28.0933 81.78 28 81.7 28H85.32C85.2267 28.0133 85.0933 28.12 84.92 28.32C84.7467 28.5067 84.5467 28.8133 84.32 29.24C84.2133 29.44 84.0467 29.7867 83.82 30.28C83.5933 30.76 83.3333 31.3267 83.04 31.98C82.7467 32.6333 82.4467 33.3133 82.14 34.02C81.8333 34.7133 81.54 35.3867 81.26 36.04C80.98 36.68 80.74 37.2467 80.54 37.74C80.3533 38.22 80.2267 38.56 80.16 38.76C80.0267 39.2 79.9733 39.5133 80 39.7C80.0267 39.8867 80.08 39.9867 80.16 40H76.76C76.84 39.9867 76.8933 39.8867 76.92 39.7C76.9467 39.5133 76.8933 39.2 76.76 38.76C76.7067 38.5867 76.6067 38.28 76.46 37.84C76.3133 37.3867 76.1333 36.8533 75.92 36.24C75.7067 35.6133 75.4733 34.9467 75.22 34.24C74.9667 33.52 74.7133 32.8 74.46 32.08C74.2067 31.3467 73.9667 30.6533 73.74 30H73.7C73.4733 30.6533 73.2333 31.3467 72.98 32.08C72.7267 32.8 72.4733 33.52 72.22 34.24C71.98 34.96 71.7533 35.6333 71.54 36.26C71.3267 36.8733 71.1467 37.4 71 37.84C70.8667 38.28 70.7733 38.5867 70.72 38.76C70.6 39.1867 70.5533 39.5 70.58 39.7C70.6067 39.8867 70.6533 39.9867 70.72 40H67.32ZM90.6395 40.2C89.2529 40.2 88.1595 39.9867 87.3595 39.56C86.5729 39.1333 86.0195 38.5533 85.6995 37.82C85.3795 37.0867 85.2195 36.26 85.2195 35.34C85.2195 33.7133 85.6595 32.4933 86.5395 31.68C87.4329 30.8667 88.7329 30.46 90.4395 30.46C91.4795 30.46 92.3529 30.5267 93.0595 30.66C93.7662 30.7933 94.2529 30.92 94.5195 31.04V31.44L94.9195 33.18C94.6529 32.9 94.1462 32.6133 93.3995 32.32C92.6529 32.0133 91.7129 31.86 90.5795 31.86C90.0062 31.86 89.4595 31.96 88.9395 32.16C88.4329 32.3467 88.0195 32.6933 87.6995 33.2C87.3929 33.7067 87.2395 34.4267 87.2395 35.36C87.2395 36.2667 87.4062 36.9733 87.7395 37.48C88.0729 37.9733 88.5329 38.3133 89.1195 38.5C89.7062 38.6867 90.3729 38.78 91.1195 38.78C92.0662 38.78 92.8462 38.6333 93.4595 38.34C94.0862 38.0467 94.5062 37.76 94.7195 37.48V37.88L94.9195 39.24C94.6662 39.4533 94.1662 39.6667 93.4195 39.88C92.6862 40.0933 91.7595 40.2 90.6395 40.2Z"/>
</mask>
<path d="M67.32 40C67.4133 39.9733 67.4733 39.8733 67.5 39.7C67.5267 39.5133 67.4667 39.22 67.32 38.82C67.2667 38.6733 67.14 38.3733 66.94 37.92C66.7533 37.4667 66.52 36.92 66.24 36.28C65.9733 35.6267 65.6867 34.94 65.38 34.22C65.0733 33.5 64.7733 32.8 64.48 32.12C64.1867 31.44 63.9267 30.84 63.7 30.32C63.4867 29.8 63.3267 29.4267 63.22 29.2C63.0467 28.7733 62.86 28.4733 62.66 28.3C62.46 28.1133 62.3067 28.0133 62.2 28H65.82C65.7267 28.0133 65.6667 28.1133 65.64 28.3C65.6267 28.4867 65.6933 28.8 65.84 29.24C65.9067 29.4133 66.0133 29.72 66.16 30.16C66.32 30.6 66.5133 31.1267 66.74 31.74C66.9667 32.34 67.2067 32.9933 67.46 33.7C67.7133 34.3933 67.9733 35.1 68.24 35.82C68.5067 36.5267 68.7533 37.2 68.98 37.84H69.02C69.2333 37.2267 69.4533 36.5733 69.68 35.88C69.92 35.1733 70.1533 34.4733 70.38 33.78C70.6067 33.0733 70.82 32.42 71.02 31.82C71.22 31.2067 71.3933 30.6733 71.54 30.22C71.6867 29.7667 71.7867 29.44 71.84 29.24C71.96 28.8 72.0067 28.4867 71.98 28.3C71.9533 28.1133 71.9067 28.0133 71.84 28H75.66C75.58 28 75.5267 28.0933 75.5 28.28C75.4733 28.4667 75.5267 28.7933 75.66 29.26C75.7133 29.4333 75.8067 29.74 75.94 30.18C76.0867 30.62 76.26 31.1467 76.46 31.76C76.66 32.36 76.8733 33.0133 77.1 33.72C77.34 34.4133 77.5733 35.12 77.8 35.84C78.04 36.5467 78.2667 37.2133 78.48 37.84H78.52C78.76 37.2 79.0133 36.5267 79.28 35.82C79.5467 35.1133 79.8067 34.4133 80.06 33.72C80.3267 33.0133 80.5733 32.3533 80.8 31.74C81.0267 31.1267 81.22 30.6 81.38 30.16C81.54 29.72 81.6467 29.4133 81.7 29.24C81.8467 28.7867 81.9 28.4667 81.86 28.28C81.8333 28.0933 81.78 28 81.7 28H85.32C85.2267 28.0133 85.0933 28.12 84.92 28.32C84.7467 28.5067 84.5467 28.8133 84.32 29.24C84.2133 29.44 84.0467 29.7867 83.82 30.28C83.5933 30.76 83.3333 31.3267 83.04 31.98C82.7467 32.6333 82.4467 33.3133 82.14 34.02C81.8333 34.7133 81.54 35.3867 81.26 36.04C80.98 36.68 80.74 37.2467 80.54 37.74C80.3533 38.22 80.2267 38.56 80.16 38.76C80.0267 39.2 79.9733 39.5133 80 39.7C80.0267 39.8867 80.08 39.9867 80.16 40H76.76C76.84 39.9867 76.8933 39.8867 76.92 39.7C76.9467 39.5133 76.8933 39.2 76.76 38.76C76.7067 38.5867 76.6067 38.28 76.46 37.84C76.3133 37.3867 76.1333 36.8533 75.92 36.24C75.7067 35.6133 75.4733 34.9467 75.22 34.24C74.9667 33.52 74.7133 32.8 74.46 32.08C74.2067 31.3467 73.9667 30.6533 73.74 30H73.7C73.4733 30.6533 73.2333 31.3467 72.98 32.08C72.7267 32.8 72.4733 33.52 72.22 34.24C71.98 34.96 71.7533 35.6333 71.54 36.26C71.3267 36.8733 71.1467 37.4 71 37.84C70.8667 38.28 70.7733 38.5867 70.72 38.76C70.6 39.1867 70.5533 39.5 70.58 39.7C70.6067 39.8867 70.6533 39.9867 70.72 40H67.32ZM90.6395 40.2C89.2529 40.2 88.1595 39.9867 87.3595 39.56C86.5729 39.1333 86.0195 38.5533 85.6995 37.82C85.3795 37.0867 85.2195 36.26 85.2195 35.34C85.2195 33.7133 85.6595 32.4933 86.5395 31.68C87.4329 30.8667 88.7329 30.46 90.4395 30.46C91.4795 30.46 92.3529 30.5267 93.0595 30.66C93.7662 30.7933 94.2529 30.92 94.5195 31.04V31.44L94.9195 33.18C94.6529 32.9 94.1462 32.6133 93.3995 32.32C92.6529 32.0133 91.7129 31.86 90.5795 31.86C90.0062 31.86 89.4595 31.96 88.9395 32.16C88.4329 32.3467 88.0195 32.6933 87.6995 33.2C87.3929 33.7067 87.2395 34.4267 87.2395 35.36C87.2395 36.2667 87.4062 36.9733 87.7395 37.48C88.0729 37.9733 88.5329 38.3133 89.1195 38.5C89.7062 38.6867 90.3729 38.78 91.1195 38.78C92.0662 38.78 92.8462 38.6333 93.4595 38.34C94.0862 38.0467 94.5062 37.76 94.7195 37.48V37.88L94.9195 39.24C94.6662 39.4533 94.1662 39.6667 93.4195 39.88C92.6862 40.0933 91.7595 40.2 90.6395 40.2Z" fill="white"/>
<path d="M67.32 40L67.0453 39.0385L67.32 41V40ZM67.5 39.7L68.4884 39.8521L68.4899 39.8414L67.5 39.7ZM67.32 38.82L66.3802 39.1617L66.3811 39.1643L67.32 38.82ZM66.94 37.92L66.0153 38.3007L66.0201 38.3123L66.0251 38.3236L66.94 37.92ZM66.24 36.28L65.3142 36.6579L65.3189 36.6694L65.3238 36.6808L66.24 36.28ZM65.38 34.22L66.3 33.8281L66.3 33.8281L65.38 34.22ZM64.48 32.12L63.5618 32.5161L63.5618 32.5161L64.48 32.12ZM63.7 30.32L62.7748 30.6996L62.779 30.7096L62.7833 30.7196L63.7 30.32ZM63.22 29.2L62.2935 29.5764L62.3037 29.6014L62.3152 29.6258L63.22 29.2ZM62.66 28.3L61.9777 29.0311L61.9911 29.0436L62.0051 29.0557L62.66 28.3ZM62.2 28V27L62.076 28.9923L62.2 28ZM65.82 28L65.9614 28.9899L65.82 27V28ZM65.64 28.3L64.6501 28.1586L64.6451 28.1935L64.6425 28.2288L65.64 28.3ZM65.84 29.24L64.8913 29.5562L64.8985 29.5778L64.9067 29.599L65.84 29.24ZM66.16 30.16L65.2113 30.4762L65.2156 30.489L65.2202 30.5017L66.16 30.16ZM66.74 31.74L65.802 32.0867L65.8045 32.0934L66.74 31.74ZM67.46 33.7L66.5186 34.0375L66.5207 34.0432L67.46 33.7ZM68.24 35.82L67.3022 36.1673L67.3044 36.1731L68.24 35.82ZM68.98 37.84L68.0374 38.1738L68.2733 38.84H68.98V37.84ZM69.02 37.84V38.84H69.7309L69.9645 38.1685L69.02 37.84ZM69.68 35.88L68.7331 35.5584L68.7295 35.5693L69.68 35.88ZM70.38 33.78L71.3305 34.0907L71.3322 34.0854L70.38 33.78ZM71.02 31.82L71.9687 32.1362L71.9707 32.13L71.02 31.82ZM71.54 30.22L70.5886 29.9122L70.5886 29.9122L71.54 30.22ZM71.84 29.24L70.8752 28.9769L70.8738 28.9823L71.84 29.24ZM71.98 28.3L70.9901 28.4414L70.9901 28.4414L71.98 28.3ZM71.84 28V27L71.6439 28.9806L71.84 28ZM75.5 28.28L74.5101 28.1386L74.5101 28.1386L75.5 28.28ZM75.66 29.26L74.6985 29.5347L74.7013 29.5444L74.7042 29.5541L75.66 29.26ZM75.94 30.18L74.983 30.47L74.987 30.4832L74.9913 30.4962L75.94 30.18ZM76.46 31.76L75.5093 32.07L75.5113 32.0762L76.46 31.76ZM77.1 33.72L76.1478 34.0254L76.1513 34.0363L76.155 34.0471L77.1 33.72ZM77.8 35.84L76.8462 36.1403L76.8495 36.151L76.8531 36.1616L77.8 35.84ZM78.48 37.84L77.5334 38.1623L77.7641 38.84H78.48V37.84ZM78.52 37.84V38.84H79.213L79.4563 38.1911L78.52 37.84ZM79.28 35.82L78.3444 35.4669L78.3444 35.4669L79.28 35.82ZM80.06 33.72L79.1243 33.3669L79.1207 33.3768L80.06 33.72ZM80.8 31.74L81.738 32.0867L81.738 32.0866L80.8 31.74ZM81.38 30.16L82.3198 30.5017L82.3198 30.5017L81.38 30.16ZM81.7 29.24L80.7486 28.9322L80.7463 28.939L80.7442 28.9459L81.7 29.24ZM81.86 28.28L80.8701 28.4214L80.8749 28.4557L80.8822 28.4895L81.86 28.28ZM85.32 28L85.4614 28.9899L85.32 27V28ZM84.92 28.32L85.6528 29.0005L85.6645 28.9879L85.6757 28.9749L84.92 28.32ZM84.32 29.24L85.2024 29.7106L85.2031 29.7092L84.32 29.24ZM83.82 30.28L84.7243 30.707L84.7287 30.6975L83.82 30.28ZM82.14 34.02L83.0546 34.4245L83.0573 34.4181L82.14 34.02ZM81.26 36.04L82.1762 36.4408L82.1791 36.4339L81.26 36.04ZM80.54 37.74L79.6133 37.3643L79.6106 37.3709L79.608 37.3776L80.54 37.74ZM80.16 38.76L79.2113 38.4438L79.207 38.4568L79.203 38.47L80.16 38.76ZM80 39.7L79.0101 39.8414L79.0101 39.8414L80 39.7ZM80.16 40V41L80.3244 39.0136L80.16 40ZM76.76 40L76.5956 39.0136L76.76 41V40ZM76.92 39.7L77.91 39.8414L77.91 39.8414L76.92 39.7ZM76.76 38.76L77.717 38.47L77.7158 38.4659L76.76 38.76ZM76.46 37.84L75.5085 38.1478L75.5113 38.1562L76.46 37.84ZM75.92 36.24L74.9733 36.5623L74.9755 36.5685L75.92 36.24ZM75.22 34.24L74.2767 34.5719L74.2787 34.5775L75.22 34.24ZM74.46 32.08L73.5148 32.4065L73.5167 32.4119L74.46 32.08ZM73.74 30L74.6848 29.6722L74.4515 29H73.74V30ZM73.7 30V29H72.9885L72.7552 29.6722L73.7 30ZM72.98 32.08L73.9233 32.4119L73.9252 32.4065L72.98 32.08ZM72.22 34.24L71.2767 33.9081L71.2739 33.9159L71.2713 33.9238L72.22 34.24ZM71.54 36.26L72.4845 36.5885L72.4867 36.5823L71.54 36.26ZM71 37.84L70.0513 37.5238L70.047 37.5368L70.043 37.55L71 37.84ZM70.72 38.76L69.7642 38.4659L69.7606 38.4775L69.7573 38.4893L70.72 38.76ZM70.58 39.7L69.5887 39.8322L69.5901 39.8414L70.58 39.7ZM70.72 40V41L70.9161 39.0194L70.72 40ZM67.32 40L67.5947 40.9615C68.3001 40.76 68.4522 40.0875 68.4884 39.8521L67.5 39.7L66.5116 39.5479C66.509 39.5648 66.516 39.4931 66.5775 39.3905C66.6502 39.2694 66.8005 39.1084 67.0453 39.0385L67.32 40ZM67.5 39.7L68.4899 39.8414C68.5552 39.3847 68.4078 38.8818 68.2589 38.4757L67.32 38.82L66.3811 39.1643C66.4438 39.3353 66.4785 39.4583 66.4953 39.5404C66.5142 39.6327 66.5005 39.6257 66.5101 39.5586L67.5 39.7ZM67.32 38.82L68.2598 38.4783C68.193 38.2946 68.0521 37.9633 67.8549 37.5164L66.94 37.92L66.0251 38.3236C66.2279 38.7834 66.3403 39.0521 66.3802 39.1617L67.32 38.82ZM66.94 37.92L67.8647 37.5393C67.6744 37.077 67.438 36.5233 67.1562 35.8792L66.24 36.28L65.3238 36.6808C65.602 37.3167 65.8323 37.8563 66.0153 38.3007L66.94 37.92ZM66.24 36.28L67.1658 35.9021C66.8971 35.2436 66.6085 34.5523 66.3 33.8281L65.38 34.22L64.46 34.6119C64.7649 35.3277 65.0496 36.0097 65.3142 36.6579L66.24 36.28ZM65.38 34.22L66.3 33.8281C65.9928 33.1068 65.6922 32.4054 65.3982 31.7239L64.48 32.12L63.5618 32.5161C63.8545 33.1946 64.1539 33.8932 64.46 34.6119L65.38 34.22ZM64.48 32.12L65.3982 31.7239C65.1045 31.0431 64.844 30.4419 64.6167 29.9204L63.7 30.32L62.7833 30.7196C63.0093 31.2381 63.2688 31.8369 63.5618 32.5161L64.48 32.12ZM63.7 30.32L64.6252 29.9404C64.4113 29.4191 64.2431 29.0256 64.1248 28.7742L63.22 29.2L62.3152 29.6258C62.4102 29.8278 62.562 30.1809 62.7748 30.6996L63.7 30.32ZM63.22 29.2L64.1465 28.8236C63.9517 28.3441 63.692 27.8711 63.3149 27.5443L62.66 28.3L62.0051 29.0557C62.028 29.0755 62.1417 29.2026 62.2935 29.5764L63.22 29.2ZM62.66 28.3L63.3423 27.5689C63.2186 27.4535 63.0836 27.3402 62.9413 27.2474C62.815 27.165 62.5988 27.0421 62.324 27.0077L62.2 28L62.076 28.9923C61.9829 28.9806 61.9182 28.9556 61.8892 28.9429C61.8585 28.9296 61.8444 28.9198 61.8487 28.9226C61.8522 28.9248 61.8653 28.9338 61.8887 28.9528C61.9118 28.9715 61.9413 28.9971 61.9777 29.0311L62.66 28.3ZM62.2 28V29H65.82V28V27H62.2V28ZM65.82 28L65.6786 27.01C65.2641 27.0693 64.9922 27.3294 64.8475 27.5705C64.7196 27.7837 64.672 28.0049 64.6501 28.1586L65.64 28.3L66.6299 28.4414C66.6347 28.4085 66.6304 28.4863 66.5625 28.5995C66.5244 28.6629 66.4582 28.7509 66.3506 28.8304C66.2381 28.9136 66.104 28.9696 65.9614 28.9899L65.82 28ZM65.64 28.3L64.6425 28.2288C64.6134 28.6366 64.747 29.1233 64.8913 29.5562L65.84 29.24L66.7887 28.9238C66.7224 28.725 66.6811 28.5748 66.6581 28.4669C66.6325 28.3467 66.6406 28.3277 66.6375 28.3712L65.64 28.3ZM65.84 29.24L64.9067 29.599C64.9642 29.7487 65.0645 30.0357 65.2113 30.4762L66.16 30.16L67.1087 29.8438C66.9622 29.4043 66.8491 29.078 66.7733 28.881L65.84 29.24ZM66.16 30.16L65.2202 30.5017C65.381 30.9439 65.575 31.4723 65.802 32.0866L66.74 31.74L67.678 31.3933C67.4517 30.7811 67.259 30.2561 67.0998 29.8183L66.16 30.16ZM66.74 31.74L65.8045 32.0934C66.0289 32.6873 66.2669 33.3353 66.5187 34.0375L67.46 33.7L68.4013 33.3625C68.1464 32.6514 67.9044 31.9927 67.6755 31.3866L66.74 31.74ZM67.46 33.7L66.5207 34.0432C66.7746 34.738 67.0351 35.446 67.3023 36.1673L68.24 35.82L69.1777 35.4727C68.9116 34.754 68.6521 34.0487 68.3993 33.3568L67.46 33.7ZM68.24 35.82L67.3044 36.1731C67.5689 36.874 67.8132 37.5409 68.0374 38.1738L68.98 37.84L69.9226 37.5062C69.6934 36.8591 69.4444 36.1793 69.1756 35.4669L68.24 35.82ZM68.98 37.84V38.84H69.02V37.84V36.84H68.98V37.84ZM69.02 37.84L69.9645 38.1685C70.1801 37.5486 70.4021 36.8893 70.6305 36.1907L69.68 35.88L68.7295 35.5693C68.5045 36.2574 68.2865 36.9047 68.0755 37.5115L69.02 37.84ZM69.68 35.88L70.6269 36.2016C70.8681 35.4914 71.1026 34.7878 71.3305 34.0907L70.38 33.78L69.4295 33.4693C69.204 34.1589 68.9719 34.8553 68.7331 35.5584L69.68 35.88ZM70.38 33.78L71.3322 34.0854C71.5579 33.3818 71.7701 32.7321 71.9687 32.1362L71.02 31.82L70.0713 31.5038C69.8699 32.1079 69.6554 32.7649 69.4278 33.4746L70.38 33.78ZM71.02 31.82L71.9707 32.13C72.1709 31.5162 72.3445 30.9821 72.4914 30.5278L71.54 30.22L70.5886 29.9122C70.4422 30.3646 70.2691 30.8971 70.0693 31.51L71.02 31.82ZM71.54 30.22L72.4914 30.5278C72.6384 30.0736 72.7456 29.7252 72.8062 29.4977L71.84 29.24L70.8738 28.9823C70.8278 29.1548 70.7349 29.4598 70.5886 29.9122L71.54 30.22ZM71.84 29.24L72.8048 29.5031C72.9237 29.0671 73.029 28.5718 72.9699 28.1586L71.98 28.3L70.9901 28.4414C70.9835 28.3959 70.9933 28.4112 70.9759 28.5277C70.9603 28.6325 70.9289 28.78 70.8752 28.9769L71.84 29.24ZM71.98 28.3L72.9699 28.1586C72.9511 28.0264 72.9154 27.8425 72.8312 27.6621C72.7577 27.5046 72.5355 27.1193 72.0361 27.0194L71.84 28L71.6439 28.9806C71.2111 28.894 71.0457 28.5654 71.0188 28.5079C70.9813 28.4275 70.9823 28.387 70.9901 28.4414L71.98 28.3ZM71.84 28V29H75.66V28V27H71.84V28ZM75.66 28V27C75.14 27 74.8269 27.3374 74.6918 27.5739C74.5722 27.7831 74.5298 28.0001 74.5101 28.1386L75.5 28.28L76.4899 28.4214C76.4968 28.3732 76.4945 28.4502 76.4282 28.5661C76.3908 28.6316 76.315 28.7412 76.1785 28.8367C76.0301 28.9406 75.8489 29 75.66 29V28ZM75.5 28.28L74.5101 28.1386C74.4755 28.3806 74.5004 28.6261 74.5331 28.8261C74.5681 29.0409 74.6256 29.2795 74.6985 29.5347L75.66 29.26L76.6215 28.9853C76.5611 28.7738 76.5252 28.6157 76.5069 28.5039C76.4863 28.3772 76.4979 28.366 76.4899 28.4214L75.5 28.28ZM75.66 29.26L74.7042 29.5541C74.7569 29.7251 74.8496 30.0299 74.983 30.47L75.94 30.18L76.897 29.89C76.7637 29.4501 76.6698 29.1415 76.6158 28.9659L75.66 29.26ZM75.94 30.18L74.9913 30.4962C75.1371 30.9335 75.3097 31.458 75.5093 32.07L76.46 31.76L77.4107 31.45C77.2103 30.8353 77.0362 30.3065 76.8887 29.8638L75.94 30.18ZM76.46 31.76L75.5113 32.0762C75.7099 32.6721 75.9221 33.3218 76.1478 34.0254L77.1 33.72L78.0522 33.4146C77.8246 32.7049 77.6101 32.0479 77.4087 31.4438L76.46 31.76ZM77.1 33.72L76.155 34.0471C76.3918 34.7313 76.6222 35.429 76.8462 36.1403L77.8 35.84L78.7538 35.5397C78.5244 34.811 78.2882 34.0954 78.045 33.3929L77.1 33.72ZM77.8 35.84L76.8531 36.1616C77.0932 36.8684 77.3199 37.5353 77.5334 38.1623L78.48 37.84L79.4267 37.5177C79.2134 36.8913 78.9868 36.2249 78.7469 35.5184L77.8 35.84ZM78.48 37.84V38.84H78.52V37.84V36.84H78.48V37.84ZM78.52 37.84L79.4563 38.1911C79.6961 37.5518 79.9492 36.8791 80.2156 36.1731L79.28 35.82L78.3444 35.4669C78.0775 36.1742 77.8239 36.8482 77.5837 37.4889L78.52 37.84ZM79.28 35.82L80.2156 36.1731C80.4835 35.4632 80.7447 34.7599 80.9993 34.0632L80.06 33.72L79.1207 33.3768C78.8686 34.0668 78.6099 34.7635 78.3444 35.4669L79.28 35.82ZM80.06 33.72L80.9956 34.0731C81.263 33.3646 81.5104 32.7024 81.738 32.0867L80.8 31.74L79.862 31.3933C79.6362 32.0042 79.3904 32.6621 79.1244 33.3669L80.06 33.72ZM80.8 31.74L81.738 32.0866C81.965 31.4723 82.159 30.9439 82.3198 30.5017L81.38 30.16L80.4402 29.8183C80.281 30.2561 80.0883 30.7811 79.862 31.3934L80.8 31.74ZM81.38 30.16L82.3198 30.5017C82.4793 30.063 82.5941 29.7345 82.6558 29.5341L81.7 29.24L80.7442 28.9459C80.6992 29.0922 80.6007 29.377 80.4402 29.8183L81.38 30.16ZM81.7 29.24L82.6514 29.5478C82.7336 29.2938 82.7988 29.0498 82.8364 28.8244C82.8713 28.6148 82.8964 28.3437 82.8378 28.0705L81.86 28.28L80.8822 28.4895C80.8712 28.4382 80.8731 28.4105 80.8728 28.4187C80.8727 28.425 80.8713 28.4493 80.8636 28.4956C80.8478 28.5902 80.8131 28.7328 80.7486 28.9322L81.7 29.24ZM81.86 28.28L82.85 28.1386C82.8302 28.0001 82.7878 27.7831 82.6682 27.5739C82.5331 27.3374 82.22 27 81.7 27V28V29C81.5111 29 81.3299 28.9406 81.1815 28.8367C81.045 28.7412 80.9692 28.6316 80.9318 28.5661C80.8655 28.4502 80.8632 28.3732 80.8701 28.4214L81.86 28.28ZM81.7 28V29H85.32V28V27H81.7V28ZM85.32 28L85.1786 27.01C84.8631 27.0551 84.6346 27.2217 84.5253 27.3091C84.3929 27.4151 84.2716 27.5413 84.1643 27.6651L84.92 28.32L85.6757 28.9749C85.7067 28.9391 85.7313 28.913 85.7496 28.8946C85.7684 28.8758 85.7766 28.8693 85.7747 28.8709C85.7741 28.8713 85.7522 28.8892 85.7104 28.9113C85.671 28.9321 85.5851 28.9723 85.4614 28.9899L85.32 28ZM84.92 28.32L84.1872 27.6395C83.9235 27.9235 83.6748 28.323 83.4369 28.7708L84.32 29.24L85.2031 29.7092C85.4185 29.3037 85.5698 29.0898 85.6528 29.0005L84.92 28.32ZM84.32 29.24L83.4376 28.7694C83.3156 28.9982 83.1381 29.369 82.9113 29.8625L83.82 30.28L84.7287 30.6975C84.9553 30.2043 85.1111 29.8818 85.2024 29.7106L84.32 29.24ZM83.82 30.28L82.9158 29.853C82.6856 30.3404 82.4228 30.9131 82.1277 31.5704L83.04 31.98L83.9523 32.3896C84.2438 31.7402 84.5011 31.1796 84.7242 30.707L83.82 30.28ZM83.04 31.98L82.1277 31.5704C81.8326 32.2278 81.5309 32.9117 81.2227 33.6219L82.14 34.02L83.0573 34.4181C83.3625 33.715 83.6608 33.0388 83.9523 32.3896L83.04 31.98ZM82.14 34.02L81.2255 33.6155C80.9173 34.3121 80.6225 34.989 80.3409 35.6461L81.26 36.04L82.1791 36.4339C82.4575 35.7843 82.7493 35.1145 83.0545 34.4245L82.14 34.02ZM81.26 36.04L80.3438 35.6392C80.0613 36.2851 79.8175 36.8604 79.6133 37.3643L80.54 37.74L81.4667 38.1157C81.6625 37.6329 81.8987 37.0749 82.1762 36.4408L81.26 36.04ZM80.54 37.74L79.608 37.3776C79.4214 37.8573 79.2866 38.2179 79.2113 38.4438L80.16 38.76L81.1087 39.0762C81.1667 38.9021 81.2853 38.5827 81.472 38.1024L80.54 37.74ZM80.16 38.76L79.203 38.47C79.0715 38.9039 78.9486 39.4115 79.0101 39.8414L80 39.7L80.99 39.5586C80.9979 39.6144 80.9864 39.6071 81.0058 39.4928C81.0231 39.3912 81.0577 39.2459 81.117 39.05L80.16 38.76ZM80 39.7L79.0101 39.8414C79.0304 39.9839 79.0718 40.1872 79.1776 40.3856C79.2889 40.5941 79.5397 40.9104 79.9956 40.9864L80.16 40L80.3244 39.0136C80.7003 39.0763 80.8845 39.3359 80.9424 39.4444C80.9948 39.5428 80.9963 39.6027 80.9899 39.5586L80 39.7ZM80.16 40V39H76.76V40V41H80.16V40ZM76.76 40L76.9244 40.9864C77.3803 40.9104 77.6311 40.5941 77.7424 40.3856C77.8482 40.1872 77.8896 39.9839 77.91 39.8414L76.92 39.7L75.9301 39.5586C75.9237 39.6027 75.9252 39.5428 75.9776 39.4444C76.0355 39.3359 76.2197 39.0763 76.5956 39.0136L76.76 40ZM76.92 39.7L77.91 39.8414C77.9714 39.4115 77.8485 38.9039 77.717 38.47L76.76 38.76L75.803 39.05C75.8623 39.2459 75.8969 39.3912 75.9142 39.4928C75.9336 39.6071 75.9221 39.6144 75.9301 39.5586L76.92 39.7ZM76.76 38.76L77.7158 38.4659C77.6586 38.2801 77.5552 37.9633 77.4087 37.5238L76.46 37.84L75.5113 38.1562C75.6581 38.5967 75.7547 38.8932 75.8042 39.0541L76.76 38.76ZM76.46 37.84L77.4114 37.5322C77.2619 37.07 77.0794 36.5294 76.8645 35.9115L75.92 36.24L74.9755 36.5685C75.1872 37.1773 75.3648 37.7034 75.5086 38.1478L76.46 37.84ZM75.92 36.24L76.8667 35.9177C76.6514 35.2854 76.4162 34.6136 76.1613 33.9025L75.22 34.24L74.2787 34.5775C74.5304 35.2797 74.762 35.9413 74.9734 36.5623L75.92 36.24ZM75.22 34.24L76.1633 33.9081C75.91 33.1881 75.6566 32.4681 75.4033 31.7481L74.46 32.08L73.5167 32.4119C73.77 33.1319 74.0234 33.8519 74.2767 34.5719L75.22 34.24ZM74.46 32.08L75.4052 31.7535C75.1517 31.0198 74.9116 30.326 74.6848 29.6722L73.74 30L72.7952 30.3278C73.0217 30.9806 73.2616 31.6736 73.5148 32.4065L74.46 32.08ZM73.74 30V29H73.7V30V31H73.74V30ZM73.7 30L72.7552 29.6722C72.5284 30.326 72.2883 31.0198 72.0348 31.7535L72.98 32.08L73.9252 32.4065C74.1784 31.6736 74.4183 30.9806 74.6448 30.3278L73.7 30ZM72.98 32.08L72.0367 31.7481C71.7834 32.4681 71.53 33.1881 71.2767 33.9081L72.22 34.24L73.1633 34.5719C73.4166 33.8519 73.67 33.1319 73.9233 32.4119L72.98 32.08ZM72.22 34.24L71.2713 33.9238C71.0319 34.642 70.8059 35.3133 70.5934 35.9377L71.54 36.26L72.4867 36.5823C72.7008 35.9533 72.9281 35.278 73.1687 34.5562L72.22 34.24ZM71.54 36.26L70.5955 35.9315C70.3813 36.5474 70.1998 37.0784 70.0513 37.5238L71 37.84L71.9487 38.1562C72.0936 37.7216 72.2721 37.1992 72.4845 36.5885L71.54 36.26ZM71 37.84L70.043 37.55C69.9096 37.9901 69.8169 38.2949 69.7642 38.4659L70.72 38.76L71.6758 39.0541C71.7298 38.8785 71.8237 38.5699 71.957 38.13L71 37.84ZM70.72 38.76L69.7573 38.4893C69.6342 38.9272 69.5329 39.4129 69.5888 39.8322L70.58 39.7L71.5712 39.5678C71.5752 39.5978 71.5677 39.5727 71.5841 39.4623C71.5993 39.3601 71.6299 39.2182 71.6827 39.0307L70.72 38.76ZM70.58 39.7L69.5901 39.8414C69.6089 39.9736 69.6446 40.1575 69.7288 40.3379C69.8023 40.4954 70.0245 40.8807 70.5239 40.9806L70.72 40L70.9161 39.0194C71.3489 39.106 71.5143 39.4346 71.5412 39.4921C71.5787 39.5725 71.5777 39.613 71.5699 39.5586L70.58 39.7ZM70.72 40V39H67.32V40V41H70.72V40ZM87.3595 39.56L86.8828 40.4391L86.8889 40.4424L87.3595 39.56ZM85.6995 37.82L86.6161 37.4201L86.6161 37.4201L85.6995 37.82ZM86.5395 31.68L85.8663 30.9405L85.8608 30.9456L86.5395 31.68ZM93.0595 30.66L92.8741 31.6427L92.8741 31.6427L93.0595 30.66ZM94.5195 31.04H95.5195V30.3934L94.9299 30.1281L94.5195 31.04ZM94.5195 31.44H93.5195V31.5535L93.545 31.664L94.5195 31.44ZM94.9195 33.18L94.1954 33.8697L96.7115 36.5116L95.8941 32.956L94.9195 33.18ZM93.3995 32.32L93.0196 33.245L93.0267 33.2479L93.0339 33.2508L93.3995 32.32ZM88.9395 32.16L89.2852 33.0983L89.2919 33.0959L89.2985 33.0933L88.9395 32.16ZM87.6995 33.2L86.854 32.666L86.849 32.6741L86.844 32.6822L87.6995 33.2ZM87.7395 37.48L86.9041 38.0297L86.9109 38.0399L87.7395 37.48ZM89.1195 38.5L88.8163 39.4529L88.8163 39.4529L89.1195 38.5ZM93.4595 38.34L93.0356 37.4343L93.0281 37.4379L93.4595 38.34ZM94.7195 37.48H95.7195V34.5175L93.9241 36.874L94.7195 37.48ZM94.7195 37.88H93.7195V37.9531L93.7302 38.0255L94.7195 37.88ZM94.9195 39.24L95.5637 40.0049L95.99 39.6459L95.9089 39.0945L94.9195 39.24ZM93.4195 39.88L93.1448 38.9185L93.1402 38.9198L93.4195 39.88ZM90.6395 40.2V39.2C89.3377 39.2 88.4285 38.9968 87.8301 38.6776L87.3595 39.56L86.8889 40.4424C87.8905 40.9765 89.1681 41.2 90.6395 41.2V40.2ZM87.3595 39.56L87.8363 38.681C87.221 38.3473 86.8364 37.925 86.6161 37.4201L85.6995 37.82L84.783 38.2199C85.2027 39.1817 85.9247 39.9194 86.8828 40.439L87.3595 39.56ZM85.6995 37.82L86.6161 37.4201C86.3588 36.8304 86.2195 36.1429 86.2195 35.34H85.2195H84.2195C84.2195 36.3771 84.4003 37.3429 84.783 38.2199L85.6995 37.82ZM85.2195 35.34H86.2195C86.2195 33.8886 86.6085 32.978 87.2183 32.4144L86.5395 31.68L85.8608 30.9456C84.7106 32.0087 84.2195 33.5381 84.2195 35.34H85.2195ZM86.5395 31.68L87.2128 32.4194C87.8581 31.8319 88.8794 31.46 90.4395 31.46V30.46V29.46C88.5863 29.46 87.0076 29.9014 85.8663 30.9406L86.5395 31.68ZM90.4395 30.46V31.46C91.4422 31.46 92.249 31.5247 92.8741 31.6427L93.0595 30.66L93.2449 29.6773C92.4567 29.5286 91.5168 29.46 90.4395 29.46V30.46ZM93.0595 30.66L92.8741 31.6427C93.5832 31.7764 93.9628 31.886 94.1092 31.9519L94.5195 31.04L94.9299 30.1281C94.543 29.954 93.9492 29.8102 93.2449 29.6773L93.0595 30.66ZM94.5195 31.04H93.5195V31.44H94.5195H95.5195V31.04H94.5195ZM94.5195 31.44L93.545 31.664L93.945 33.404L94.9195 33.18L95.8941 32.956L95.4941 31.216L94.5195 31.44ZM94.9195 33.18L95.6437 32.4903C95.2166 32.0419 94.5324 31.6907 93.7652 31.3892L93.3995 32.32L93.0339 33.2508C93.76 33.536 94.0892 33.7581 94.1954 33.8697L94.9195 33.18ZM93.3995 32.32L93.7795 31.395C92.8741 31.0231 91.7943 30.86 90.5795 30.86V31.86V32.86C91.6314 32.86 92.4317 33.0035 93.0196 33.245L93.3995 32.32ZM90.5795 31.86V30.86C89.8871 30.86 89.2185 30.9813 88.5806 31.2267L88.9395 32.16L89.2985 33.0933C89.7006 32.9387 90.1253 32.86 90.5795 32.86V31.86ZM88.9395 32.16L88.5938 31.2217C87.8579 31.4928 87.278 31.9948 86.854 32.666L87.6995 33.2L88.545 33.734C88.7611 33.3919 89.0079 33.2005 89.2852 33.0983L88.9395 32.16ZM87.6995 33.2L86.844 32.6822C86.4032 33.4105 86.2395 34.3399 86.2395 35.36H87.2395H88.2395C88.2395 34.5134 88.3825 34.0028 88.555 33.7178L87.6995 33.2ZM87.2395 35.36H86.2395C86.2395 36.3713 86.4225 37.2976 86.9041 38.0296L87.7395 37.48L88.5749 36.9304C88.3899 36.649 88.2395 36.162 88.2395 35.36H87.2395ZM87.7395 37.48L86.9109 38.0399C87.3748 38.7263 88.0232 39.2006 88.8163 39.4529L89.1195 38.5L89.4227 37.5471C89.0425 37.4261 88.771 37.2204 88.5681 36.9201L87.7395 37.48ZM89.1195 38.5L88.8163 39.4529C89.5193 39.6766 90.2911 39.78 91.1195 39.78V38.78V37.78C90.4546 37.78 89.8931 37.6967 89.4227 37.5471L89.1195 38.5ZM91.1195 38.78V39.78C92.1605 39.78 93.1008 39.62 93.891 39.2421L93.4595 38.34L93.0281 37.4379C92.5915 37.6466 91.9719 37.78 91.1195 37.78V38.78ZM93.4595 38.34L93.8835 39.2457C94.541 38.9379 95.1482 38.5674 95.515 38.086L94.7195 37.48L93.9241 36.874C93.8642 36.9526 93.6314 37.1554 93.0356 37.4343L93.4595 38.34ZM94.7195 37.48H93.7195V37.88H94.7195H95.7195V37.48H94.7195ZM94.7195 37.88L93.7302 38.0255L93.9302 39.3855L94.9195 39.24L95.9089 39.0945L95.7089 37.7345L94.7195 37.88ZM94.9195 39.24L94.2754 38.4751C94.2014 38.5374 93.8908 38.7053 93.1448 38.9185L93.4195 39.88L93.6943 40.8415C94.4416 40.628 95.131 40.3693 95.5637 40.0049L94.9195 39.24ZM93.4195 39.88L93.1402 38.9198C92.5292 39.0976 91.7047 39.2 90.6395 39.2V40.2V41.2C91.8143 41.2 92.8432 41.0891 93.6989 40.8402L93.4195 39.88Z" fill="black" mask="url(#path-3-outside-2_616_16)"/>
<path d="M45.0752 28.9346L51.0752 35.8096L51.2197 35.9746H49.0391L50.4648 39.2725L50.5068 39.3701L50.4082 39.4062L48.541 40.0938L48.4521 40.127L48.415 40.0391L46.957 36.6211L45.0596 38.0176L44.9004 38.1348V28.7334L45.0752 28.9346ZM45.7666 36.4131L46.5605 35.8291L47.2275 35.3408L47.3281 35.2666L47.3779 35.3809L47.7119 36.1445V36.1455L48.9277 39.0117L49.3457 38.8506L48.1885 36.1973V36.1963L47.7686 35.2275L47.708 35.0879H49.2812L45.7666 31.0547V36.4131Z" fill="white" stroke="#2096F0" stroke-width="0.2"/>
</svg>
