<svg width="319" height="57" viewBox="0 0 319 57" fill="none" xmlns="http://www.w3.org/2000/svg">
<g filter="url(#filter0_d_615_22)">
<g clip-path="url(#clip0_615_22)">
<rect x="4" width="311" height="49" rx="24.5" fill="black" fill-opacity="0.67" shape-rendering="crispEdges"/>
<path d="M43.964 32.536H34.532L33.02 37H26.576L35.72 11.728H42.848L51.992 37H45.476L43.964 32.536ZM42.38 27.784L39.248 18.532L36.152 27.784H42.38ZM85.8649 12.52C86.5129 12.544 86.8369 12.712 86.8369 13.024C86.8369 13.264 86.6329 13.576 86.2249 13.96C85.8409 14.32 85.3849 14.644 84.8569 14.932C84.3529 15.22 83.9449 15.364 83.6329 15.364H82.6249C83.0569 17.308 83.2729 18.94 83.2729 20.26C83.2729 20.788 83.2369 21.292 83.1649 21.772C83.0209 22.78 82.3249 23.716 81.0769 24.58C82.0849 25.108 82.6729 25.816 82.8409 26.704C83.0089 27.568 83.0929 28.576 83.0929 29.728C83.0929 30.64 83.0449 31.912 82.9489 33.544C83.2369 33.496 83.6689 33.4 84.2449 33.256C84.5329 33.184 84.7969 33.148 85.0369 33.148C85.5169 33.148 85.8769 33.268 86.1169 33.508C86.3809 33.748 86.5129 34.06 86.5129 34.444C86.5129 34.876 86.3449 35.296 86.0089 35.704C85.6969 36.112 85.2649 36.412 84.7129 36.604C83.2249 37.084 81.5329 37.36 79.6369 37.432C79.1809 37.456 78.7609 37.336 78.3769 37.072C78.0169 36.832 77.8369 36.496 77.8369 36.064C77.8609 34.672 77.8729 32.584 77.8729 29.8C77.8729 29.608 77.8849 29.428 77.9089 29.26C77.9329 29.092 77.9449 28.924 77.9449 28.756C77.9449 28.372 77.8489 28.048 77.6569 27.784C77.4889 27.592 77.0089 27.376 76.2169 27.136C75.4489 26.872 74.9809 26.716 74.8129 26.668C74.3569 26.476 74.1289 26.176 74.1289 25.768C74.1289 25.408 74.2609 25.048 74.5249 24.688C74.8129 24.304 75.1129 24.028 75.4249 23.86L76.3249 23.392C76.8289 23.128 77.2009 22.9 77.4409 22.708C77.7049 22.516 77.8969 22.264 78.0169 21.952C78.1609 21.616 78.2209 21.184 78.1969 20.656C78.0529 18.688 77.7409 16.66 77.2609 14.572C77.2369 14.5 77.2249 14.404 77.2249 14.284C77.2249 13.66 77.5969 13.144 78.3409 12.736C79.0849 12.304 79.8289 12.088 80.5729 12.088C80.7649 12.088 80.9089 12.1 81.0049 12.124C82.4209 12.34 84.0409 12.472 85.8649 12.52ZM147.645 37.36C145.749 37.36 144.189 37.144 142.965 36.712C141.741 36.256 140.781 35.632 140.085 34.84C139.389 34.048 138.897 33.124 138.609 32.068C138.345 31.012 138.213 29.86 138.213 28.612C138.213 25.9 138.981 23.752 140.517 22.168C142.077 20.584 144.381 19.792 147.429 19.792C149.205 19.792 150.633 20.032 151.713 20.512C152.817 20.992 153.645 21.628 154.197 22.42C154.773 23.212 155.157 24.076 155.349 25.012C155.565 25.924 155.673 26.824 155.673 27.712V29.404C155.673 29.332 155.337 29.26 154.665 29.188C154.017 29.092 152.913 29.044 151.353 29.044H141.885C141.885 30.82 142.413 32.224 143.469 33.256C144.525 34.288 146.097 34.804 148.185 34.804C149.985 34.804 151.461 34.588 152.613 34.156C153.789 33.7 154.569 33.256 154.953 32.824V33.544L155.313 35.92C154.785 36.232 153.849 36.556 152.505 36.892C151.185 37.204 149.565 37.36 147.645 37.36ZM143.325 26.668H152.073C152.073 26.044 151.941 25.396 151.677 24.724C151.413 24.052 150.945 23.488 150.273 23.032C149.601 22.552 148.653 22.312 147.429 22.312C146.397 22.312 145.497 22.492 144.729 22.852C143.961 23.188 143.361 23.632 142.929 24.184C142.521 24.736 142.317 25.324 142.317 25.948C142.317 26.188 142.389 26.368 142.533 26.488C142.677 26.608 142.941 26.668 143.325 26.668ZM168.762 37.36C167.442 37.36 166.326 37.204 165.414 36.892C164.526 36.58 163.77 36.148 163.146 35.596L163.074 35.632L163.146 36.316V37H158.754C158.922 37 159.078 36.832 159.222 36.496C159.39 36.16 159.474 35.608 159.474 34.84V14.32C159.474 13.552 159.39 13.012 159.222 12.7C159.078 12.364 158.922 12.184 158.754 12.16H163.146V20.872L163.074 21.556L163.146 21.628C163.458 21.316 163.878 21.028 164.406 20.764C164.958 20.476 165.606 20.248 166.35 20.08C167.094 19.888 167.898 19.792 168.762 19.792C170.994 19.792 172.758 20.188 174.054 20.98C175.35 21.748 176.274 22.792 176.826 24.112C177.402 25.432 177.69 26.932 177.69 28.612C177.69 30.268 177.414 31.756 176.862 33.076C176.31 34.396 175.386 35.44 174.09 36.208C172.794 36.976 171.018 37.36 168.762 37.36ZM168.402 34.804C169.89 34.804 171.042 34.564 171.858 34.084C172.674 33.604 173.238 32.908 173.55 31.996C173.862 31.06 174.018 29.932 174.018 28.612C174.018 27.292 173.85 26.164 173.514 25.228C173.202 24.292 172.638 23.572 171.822 23.068C171.03 22.564 169.89 22.312 168.402 22.312C166.962 22.312 165.858 22.6 165.09 23.176C164.346 23.728 163.83 24.484 163.542 25.444C163.278 26.404 163.146 27.46 163.146 28.612C163.146 30.508 163.518 32.02 164.262 33.148C165.006 34.252 166.386 34.804 168.402 34.804ZM205.511 37C205.679 37 205.835 36.832 205.979 36.496C206.147 36.16 206.231 35.608 206.231 34.84V22.672C206.231 21.904 206.147 21.364 205.979 21.052C205.835 20.716 205.679 20.536 205.511 20.512C206.567 20.512 207.479 20.44 208.247 20.296C209.039 20.128 209.591 19.96 209.903 19.792V21.592L209.831 22.204L209.903 22.276C210.263 21.796 210.695 21.376 211.199 21.016C211.727 20.632 212.327 20.332 212.999 20.116C213.671 19.9 214.439 19.792 215.303 19.792C216.431 19.792 217.403 19.96 218.219 20.296C219.059 20.608 219.659 20.932 220.019 21.268L219.299 24.292V25.372C218.987 24.988 218.531 24.592 217.931 24.184C217.355 23.752 216.695 23.392 215.951 23.104C215.207 22.816 214.415 22.672 213.575 22.672C212.615 22.672 211.763 23.056 211.019 23.824C210.275 24.592 209.903 25.864 209.903 27.64V34.84C209.903 35.608 209.975 36.16 210.119 36.496C210.287 36.832 210.455 37 210.623 37H205.511ZM228.173 37.36C225.557 37.36 223.721 36.892 222.665 35.956C221.609 34.996 221.081 33.712 221.081 32.104C221.081 30.976 221.357 30.016 221.909 29.224C222.485 28.408 223.337 27.784 224.465 27.352C225.617 26.92 227.069 26.704 228.821 26.704C230.069 26.704 231.149 26.8 232.061 26.992C232.997 27.16 233.753 27.364 234.329 27.604C234.929 27.844 235.349 28.048 235.589 28.216C235.589 26.8 235.409 25.66 235.049 24.796C234.713 23.932 234.161 23.308 233.393 22.924C232.625 22.516 231.581 22.312 230.261 22.312C228.845 22.312 227.573 22.48 226.445 22.816C225.341 23.128 224.453 23.476 223.781 23.86C223.109 24.22 222.689 24.484 222.521 24.652V23.932L222.161 21.232C222.377 21.136 222.845 20.98 223.565 20.764C224.285 20.524 225.233 20.308 226.409 20.116C227.585 19.9 228.965 19.792 230.549 19.792C232.565 19.792 234.209 20.08 235.481 20.656C236.777 21.208 237.725 22.072 238.325 23.248C238.949 24.4 239.261 25.864 239.261 27.64V34.84C239.261 35.512 239.333 36.004 239.477 36.316C239.645 36.604 239.813 36.832 239.981 37H235.589V35.92L235.661 35.236L235.589 35.2C235.205 35.56 234.749 35.872 234.221 36.136C233.693 36.4 233.117 36.628 232.493 36.82C231.869 36.988 231.185 37.12 230.441 37.216C229.721 37.312 228.965 37.36 228.173 37.36ZM229.361 34.804C230.657 34.804 231.773 34.672 232.709 34.408C233.645 34.144 234.353 33.796 234.833 33.364C235.337 32.908 235.589 32.392 235.589 31.816C235.589 31.096 235.109 30.484 234.149 29.98C233.213 29.476 231.749 29.224 229.757 29.224C227.909 29.224 226.601 29.464 225.833 29.944C225.089 30.424 224.717 31.144 224.717 32.104C224.717 33.04 225.077 33.724 225.797 34.156C226.541 34.588 227.729 34.804 229.361 34.804ZM243.958 37C244.126 37 244.282 36.832 244.426 36.496C244.594 36.16 244.678 35.608 244.678 34.84V22.672H241.438V20.152H245.038L245.074 20.08C245.002 19.96 244.858 19.564 244.642 18.892C244.426 18.196 244.318 17.38 244.318 16.444C244.318 14.548 244.858 13.18 245.938 12.34C247.018 11.5 248.518 11.08 250.438 11.08C251.734 11.08 252.91 11.164 253.966 11.332C255.046 11.476 255.826 11.632 256.306 11.8V12.556L257.026 15.4C257.026 15.28 256.726 15.076 256.126 14.788C255.55 14.5 254.794 14.236 253.858 13.996C252.922 13.756 251.938 13.636 250.906 13.636C249.898 13.636 249.154 13.864 248.674 14.32C248.218 14.752 247.99 15.592 247.99 16.84V19.072C247.99 19.6 248.038 19.912 248.134 20.008C248.23 20.104 248.554 20.152 249.106 20.152H255.226C255.082 20.392 254.926 20.752 254.758 21.232C254.59 21.688 254.506 22.168 254.506 22.672H248.35V34.84C248.35 35.608 248.434 36.16 248.602 36.496C248.77 36.832 248.926 37 249.07 37H243.958ZM264.633 37.36C262.977 37.36 261.777 37.012 261.033 36.316C260.289 35.596 259.917 34.432 259.917 32.824V22.672H256.677V20.152C257.781 20.152 258.645 20.02 259.269 19.756C259.893 19.468 260.337 18.976 260.601 18.28C260.865 17.584 260.997 16.612 260.997 15.364H263.589V20.152H270.465C270.297 20.392 270.129 20.752 269.961 21.232C269.817 21.688 269.745 22.168 269.745 22.672H263.589V32.284C263.589 33.388 263.793 34.084 264.201 34.372C264.609 34.66 265.125 34.804 265.749 34.804C266.349 34.804 266.901 34.684 267.405 34.444C267.933 34.18 268.389 33.868 268.773 33.508C269.181 33.148 269.493 32.8 269.709 32.464V33.58L270.069 35.632C269.829 35.872 269.457 36.136 268.953 36.424C268.449 36.688 267.837 36.904 267.117 37.072C266.397 37.264 265.569 37.36 264.633 37.36ZM281.808 37.36C279.552 37.36 277.656 37.24 276.12 37C274.608 36.76 273.576 36.52 273.024 36.28V35.56L272.268 32.464C272.892 32.968 273.984 33.496 275.544 34.048C277.128 34.576 279.048 34.84 281.304 34.84C282.792 34.84 283.908 34.744 284.652 34.552C285.396 34.336 285.888 34.06 286.128 33.724C286.368 33.364 286.488 32.968 286.488 32.536C286.488 32.032 286.308 31.636 285.948 31.348C285.612 31.036 284.964 30.784 284.004 30.592C283.068 30.376 281.676 30.16 279.828 29.944C277.812 29.704 276.252 29.356 275.148 28.9C274.068 28.444 273.324 27.868 272.916 27.172C272.508 26.452 272.304 25.6 272.304 24.616C272.304 23.848 272.508 23.092 272.916 22.348C273.324 21.604 274.08 20.992 275.184 20.512C276.312 20.032 277.908 19.792 279.972 19.792C282.204 19.792 284.076 19.912 285.588 20.152C287.124 20.392 288.168 20.632 288.72 20.872V21.592L289.44 24.328C288.84 23.896 287.748 23.452 286.164 22.996C284.58 22.54 282.672 22.312 280.44 22.312C278.664 22.312 277.476 22.516 276.876 22.924C276.276 23.308 275.976 23.812 275.976 24.436C275.976 24.796 276.048 25.12 276.192 25.408C276.336 25.672 276.624 25.912 277.056 26.128C277.512 26.344 278.184 26.536 279.072 26.704C279.984 26.872 281.196 27.04 282.708 27.208C284.748 27.424 286.296 27.76 287.352 28.216C288.408 28.672 289.128 29.248 289.512 29.944C289.92 30.616 290.124 31.408 290.124 32.32C290.124 33.304 289.848 34.18 289.296 34.948C288.768 35.692 287.892 36.28 286.668 36.712C285.444 37.144 283.824 37.36 281.808 37.36Z" fill="#2096F0"/>
<path d="M58.735 36.964C57.607 36.94 57.043 36.592 57.043 35.92C57.043 35.584 57.199 35.212 57.511 34.804C57.847 34.396 58.255 34.048 58.735 33.76C59.239 33.472 59.731 33.328 60.211 33.328L61.363 33.4C61.339 32.944 61.279 32.26 61.183 31.348C61.039 30.196 60.967 29.32 60.967 28.72C60.967 28.384 60.979 28.132 61.003 27.964C61.051 27.388 61.231 26.836 61.543 26.308C61.879 25.756 62.323 25.156 62.875 24.508C61.363 24.196 60.439 23.596 60.103 22.708C60.007 22.444 59.959 22.144 59.959 21.808C59.959 21.424 60.031 20.872 60.175 20.152C60.199 20.032 60.235 19.852 60.283 19.612C60.331 19.348 60.355 19.132 60.355 18.964C60.403 18.244 60.427 17.716 60.427 17.38C60.427 16.66 60.391 15.94 60.319 15.22C59.503 15.148 58.267 15.088 56.611 15.04C55.963 15.016 55.639 14.836 55.639 14.5C55.639 14.26 55.831 13.96 56.215 13.6C56.599 13.24 57.043 12.928 57.547 12.664C58.051 12.376 58.459 12.232 58.771 12.232H60.355C61.435 12.232 62.227 12.184 62.731 12.088C62.875 12.064 63.079 12.052 63.343 12.052C64.375 12.052 64.939 12.448 65.035 13.24C65.179 14.488 65.251 15.724 65.251 16.948C65.251 17.692 65.239 18.244 65.215 18.604C65.191 18.772 65.143 19.036 65.071 19.396C65.023 19.756 64.999 20.056 64.999 20.296C64.999 20.536 65.035 20.716 65.107 20.836C65.299 21.124 65.707 21.268 66.331 21.268C66.979 21.244 67.327 21.232 67.375 21.232C67.879 21.256 68.299 21.4 68.635 21.664C68.971 21.904 69.139 22.216 69.139 22.6C69.139 22.912 69.019 23.224 68.779 23.536L67.879 24.688C67.255 25.456 66.787 26.128 66.475 26.704C66.187 27.256 66.043 27.916 66.043 28.684C66.043 29.044 66.067 29.464 66.115 29.944C66.163 30.424 66.199 30.772 66.223 30.988C66.367 31.996 66.439 32.776 66.439 33.328C66.439 33.712 66.403 34.108 66.331 34.516C66.235 34.996 66.007 35.428 65.647 35.812C65.287 36.172 64.867 36.424 64.387 36.568C63.475 36.856 62.311 37 60.895 37L58.735 36.964Z" fill="white"/>
<path d="M105.994 37C106.162 36.952 106.27 36.772 106.318 36.46C106.366 36.124 106.258 35.596 105.994 34.876C105.898 34.612 105.67 34.072 105.31 33.256C104.974 32.44 104.554 31.456 104.05 30.304C103.57 29.128 103.054 27.892 102.502 26.596C101.95 25.3 101.41 24.04 100.882 22.816C100.354 21.592 99.886 20.512 99.478 19.576C99.094 18.64 98.806 17.968 98.614 17.56C98.302 16.792 97.966 16.252 97.606 15.94C97.246 15.604 96.97 15.424 96.778 15.4H103.294C103.126 15.424 103.018 15.604 102.97 15.94C102.946 16.276 103.066 16.84 103.33 17.632C103.45 17.944 103.642 18.496 103.906 19.288C104.194 20.08 104.542 21.028 104.95 22.132C105.358 23.212 105.79 24.388 106.246 25.66C106.702 26.908 107.17 28.18 107.65 29.476C108.13 30.748 108.574 31.96 108.982 33.112H109.054C109.438 32.008 109.834 30.832 110.242 29.584C110.674 28.312 111.094 27.052 111.502 25.804C111.91 24.532 112.294 23.356 112.654 22.276C113.014 21.172 113.326 20.212 113.59 19.396C113.854 18.58 114.034 17.992 114.13 17.632C114.346 16.84 114.43 16.276 114.382 15.94C114.334 15.604 114.25 15.424 114.13 15.4H121.006C120.862 15.4 120.766 15.568 120.718 15.904C120.67 16.24 120.766 16.828 121.006 17.668C121.102 17.98 121.27 18.532 121.51 19.324C121.774 20.116 122.086 21.064 122.446 22.168C122.806 23.248 123.19 24.424 123.598 25.696C124.03 26.944 124.45 28.216 124.858 29.512C125.29 30.784 125.698 31.984 126.082 33.112H126.154C126.586 31.96 127.042 30.748 127.522 29.476C128.002 28.204 128.47 26.944 128.926 25.696C129.406 24.424 129.85 23.236 130.258 22.132C130.666 21.028 131.014 20.08 131.302 19.288C131.59 18.496 131.782 17.944 131.878 17.632C132.142 16.816 132.238 16.24 132.166 15.904C132.118 15.568 132.022 15.4 131.878 15.4H138.394C138.226 15.424 137.986 15.616 137.674 15.976C137.362 16.312 137.002 16.864 136.594 17.632C136.402 17.992 136.102 18.616 135.694 19.504C135.286 20.368 134.818 21.388 134.29 22.564C133.762 23.74 133.222 24.964 132.67 26.236C132.118 27.484 131.59 28.696 131.086 29.872C130.582 31.024 130.15 32.044 129.79 32.932C129.454 33.796 129.226 34.408 129.106 34.768C128.866 35.56 128.77 36.124 128.818 36.46C128.866 36.796 128.962 36.976 129.106 37H122.986C123.13 36.976 123.226 36.796 123.274 36.46C123.322 36.124 123.226 35.56 122.986 34.768C122.89 34.456 122.71 33.904 122.446 33.112C122.182 32.296 121.858 31.336 121.474 30.232C121.09 29.104 120.67 27.904 120.214 26.632C119.758 25.336 119.302 24.04 118.846 22.744C118.39 21.424 117.958 20.176 117.55 19H117.478C117.07 20.176 116.638 21.424 116.182 22.744C115.726 24.04 115.27 25.336 114.814 26.632C114.382 27.928 113.974 29.14 113.59 30.268C113.206 31.372 112.882 32.32 112.618 33.112C112.378 33.904 112.21 34.456 112.114 34.768C111.898 35.536 111.814 36.1 111.862 36.46C111.91 36.796 111.994 36.976 112.114 37H105.994ZM192.933 37.36C188.805 37.36 185.709 36.472 183.645 34.696C181.605 32.896 180.585 30.064 180.585 26.2C180.585 23.968 181.005 22.024 181.845 20.368C182.685 18.688 184.017 17.38 185.841 16.444C187.665 15.508 190.029 15.04 192.933 15.04C195.213 15.04 197.109 15.16 198.621 15.4C200.133 15.64 201.153 15.88 201.681 16.12V16.84L202.401 20.08C201.945 19.768 201.261 19.444 200.349 19.108C199.461 18.772 198.393 18.496 197.145 18.28C195.897 18.04 194.517 17.92 193.005 17.92C190.869 17.92 189.189 18.28 187.965 19C186.741 19.696 185.877 20.668 185.373 21.916C184.869 23.164 184.617 24.592 184.617 26.2C184.617 27.808 184.869 29.236 185.373 30.484C185.901 31.708 186.837 32.68 188.181 33.4C189.549 34.096 191.505 34.444 194.049 34.444C196.113 34.444 197.829 34.204 199.197 33.724C200.589 33.22 201.537 32.74 202.041 32.284V33.364L202.401 35.56C201.993 35.944 200.997 36.34 199.413 36.748C197.853 37.156 195.693 37.36 192.933 37.36Z" fill="white"/>
<path d="M76.0752 30.8096L76.2197 30.9746H74.0391L75.4648 34.2725L75.5068 34.3701L75.4082 34.4062L73.541 35.0938L73.4521 35.127L73.415 35.0391L71.957 31.6211L70.0596 33.0176L69.9004 33.1348V24H70L70.0752 23.9346L76.0752 30.8096ZM70.7666 31.4131L71.5605 30.8291L72.2275 30.3408L72.3281 30.2666L72.3779 30.3809L72.7119 31.1445V31.1455L73.9277 34.0117L74.3457 33.8506L73.1885 31.1973V31.1963L72.7686 30.2275L72.708 30.0879H74.2812L70.7666 26.0547V31.4131Z" fill="white" stroke="#2096F0" stroke-width="0.2"/>
</g>
</g>
<defs>
<filter id="filter0_d_615_22" x="0" y="0" width="319" height="57" filterUnits="userSpaceOnUse" color-interpolation-filters="sRGB">
<feFlood flood-opacity="0" result="BackgroundImageFix"/>
<feColorMatrix in="SourceAlpha" type="matrix" values="0 0 0 0 0 0 0 0 0 0 0 0 0 0 0 0 0 0 127 0" result="hardAlpha"/>
<feOffset dy="4"/>
<feGaussianBlur stdDeviation="2"/>
<feComposite in2="hardAlpha" operator="out"/>
<feColorMatrix type="matrix" values="0 0 0 0 0 0 0 0 0 0 0 0 0 0 0 0 0 0 0.25 0"/>
<feBlend mode="normal" in2="BackgroundImageFix" result="effect1_dropShadow_615_22"/>
<feBlend mode="normal" in="SourceGraphic" in2="effect1_dropShadow_615_22" result="shape"/>
</filter>
<clipPath id="clip0_615_22">
<rect x="4" width="311" height="49" rx="24.5" fill="white"/>
</clipPath>
</defs>
</svg>
