<svg width="360" height="360" viewBox="0 0 360 360" fill="none" xmlns="http://www.w3.org/2000/svg">
<g filter="url(#filter0_f_627_16)">
<circle cx="180" cy="180" r="40" fill="#2096F0"/>
</g>
<mask id="path-2-outside-1_627_16" maskUnits="userSpaceOnUse" x="131" y="162" width="63" height="29" fill="black">
<rect fill="white" x="131" y="162" width="63" height="29"/>
<path d="M149.964 184.536H140.532L139.02 189H132.576L141.72 163.728H148.848L157.992 189H151.476L149.964 184.536ZM148.38 179.784L145.248 170.532L142.152 179.784H148.38ZM191.865 164.52C192.513 164.544 192.837 164.712 192.837 165.024C192.837 165.264 192.633 165.576 192.225 165.96C191.841 166.32 191.385 166.644 190.857 166.932C190.353 167.22 189.945 167.364 189.633 167.364H188.625C189.057 169.308 189.273 170.94 189.273 172.26C189.273 172.788 189.237 173.292 189.165 173.772C189.021 174.78 188.325 175.716 187.077 176.58C188.085 177.108 188.673 177.816 188.841 178.704C189.009 179.568 189.093 180.576 189.093 181.728C189.093 182.64 189.045 183.912 188.949 185.544C189.237 185.496 189.669 185.4 190.245 185.256C190.533 185.184 190.797 185.148 191.037 185.148C191.517 185.148 191.877 185.268 192.117 185.508C192.381 185.748 192.513 186.06 192.513 186.444C192.513 186.876 192.345 187.296 192.009 187.704C191.697 188.112 191.265 188.412 190.713 188.604C189.225 189.084 187.533 189.36 185.637 189.432C185.181 189.456 184.761 189.336 184.377 189.072C184.017 188.832 183.837 188.496 183.837 188.064C183.861 186.672 183.873 184.584 183.873 181.8C183.873 181.608 183.885 181.428 183.909 181.26C183.933 181.092 183.945 180.924 183.945 180.756C183.945 180.372 183.849 180.048 183.657 179.784C183.489 179.592 183.009 179.376 182.217 179.136C181.449 178.872 180.981 178.716 180.813 178.668C180.357 178.476 180.129 178.176 180.129 177.768C180.129 177.408 180.261 177.048 180.525 176.688C180.813 176.304 181.113 176.028 181.425 175.86L182.325 175.392C182.829 175.128 183.201 174.9 183.441 174.708C183.705 174.516 183.897 174.264 184.017 173.952C184.161 173.616 184.221 173.184 184.197 172.656C184.053 170.688 183.741 168.66 183.261 166.572C183.237 166.5 183.225 166.404 183.225 166.284C183.225 165.66 183.597 165.144 184.341 164.736C185.085 164.304 185.829 164.088 186.573 164.088C186.765 164.088 186.909 164.1 187.005 164.124C188.421 164.34 190.041 164.472 191.865 164.52Z"/>
<path d="M164.735 188.964C163.607 188.94 163.043 188.592 163.043 187.92C163.043 187.584 163.199 187.212 163.511 186.804C163.847 186.396 164.255 186.048 164.735 185.76C165.239 185.472 165.731 185.328 166.211 185.328L167.363 185.4C167.339 184.944 167.279 184.26 167.183 183.348C167.039 182.196 166.967 181.32 166.967 180.72C166.967 180.384 166.979 180.132 167.003 179.964C167.051 179.388 167.231 178.836 167.543 178.308C167.879 177.756 168.323 177.156 168.875 176.508C167.363 176.196 166.439 175.596 166.103 174.708C166.007 174.444 165.959 174.144 165.959 173.808C165.959 173.424 166.031 172.872 166.175 172.152C166.199 172.032 166.235 171.852 166.283 171.612C166.331 171.348 166.355 171.132 166.355 170.964C166.403 170.244 166.427 169.716 166.427 169.38C166.427 168.66 166.391 167.94 166.319 167.22C165.503 167.148 164.267 167.088 162.611 167.04C161.963 167.016 161.639 166.836 161.639 166.5C161.639 166.26 161.831 165.96 162.215 165.6C162.599 165.24 163.043 164.928 163.547 164.664C164.051 164.376 164.459 164.232 164.771 164.232H166.355C167.435 164.232 168.227 164.184 168.731 164.088C168.875 164.064 169.079 164.052 169.343 164.052C170.375 164.052 170.939 164.448 171.035 165.24C171.179 166.488 171.251 167.724 171.251 168.948C171.251 169.692 171.239 170.244 171.215 170.604C171.191 170.772 171.143 171.036 171.071 171.396C171.023 171.756 170.999 172.056 170.999 172.296C170.999 172.536 171.035 172.716 171.107 172.836C171.299 173.124 171.707 173.268 172.331 173.268C172.979 173.244 173.327 173.232 173.375 173.232C173.879 173.256 174.299 173.4 174.635 173.664C174.971 173.904 175.139 174.216 175.139 174.6C175.139 174.912 175.019 175.224 174.779 175.536L173.879 176.688C173.255 177.456 172.787 178.128 172.475 178.704C172.187 179.256 172.043 179.916 172.043 180.684C172.043 181.044 172.067 181.464 172.115 181.944C172.163 182.424 172.199 182.772 172.223 182.988C172.367 183.996 172.439 184.776 172.439 185.328C172.439 185.712 172.403 186.108 172.331 186.516C172.235 186.996 172.007 187.428 171.647 187.812C171.287 188.172 170.867 188.424 170.387 188.568C169.475 188.856 168.311 189 166.895 189L164.735 188.964Z"/>
</mask>
<path d="M149.964 184.536H140.532L139.02 189H132.576L141.72 163.728H148.848L157.992 189H151.476L149.964 184.536ZM148.38 179.784L145.248 170.532L142.152 179.784H148.38ZM191.865 164.52C192.513 164.544 192.837 164.712 192.837 165.024C192.837 165.264 192.633 165.576 192.225 165.96C191.841 166.32 191.385 166.644 190.857 166.932C190.353 167.22 189.945 167.364 189.633 167.364H188.625C189.057 169.308 189.273 170.94 189.273 172.26C189.273 172.788 189.237 173.292 189.165 173.772C189.021 174.78 188.325 175.716 187.077 176.58C188.085 177.108 188.673 177.816 188.841 178.704C189.009 179.568 189.093 180.576 189.093 181.728C189.093 182.64 189.045 183.912 188.949 185.544C189.237 185.496 189.669 185.4 190.245 185.256C190.533 185.184 190.797 185.148 191.037 185.148C191.517 185.148 191.877 185.268 192.117 185.508C192.381 185.748 192.513 186.06 192.513 186.444C192.513 186.876 192.345 187.296 192.009 187.704C191.697 188.112 191.265 188.412 190.713 188.604C189.225 189.084 187.533 189.36 185.637 189.432C185.181 189.456 184.761 189.336 184.377 189.072C184.017 188.832 183.837 188.496 183.837 188.064C183.861 186.672 183.873 184.584 183.873 181.8C183.873 181.608 183.885 181.428 183.909 181.26C183.933 181.092 183.945 180.924 183.945 180.756C183.945 180.372 183.849 180.048 183.657 179.784C183.489 179.592 183.009 179.376 182.217 179.136C181.449 178.872 180.981 178.716 180.813 178.668C180.357 178.476 180.129 178.176 180.129 177.768C180.129 177.408 180.261 177.048 180.525 176.688C180.813 176.304 181.113 176.028 181.425 175.86L182.325 175.392C182.829 175.128 183.201 174.9 183.441 174.708C183.705 174.516 183.897 174.264 184.017 173.952C184.161 173.616 184.221 173.184 184.197 172.656C184.053 170.688 183.741 168.66 183.261 166.572C183.237 166.5 183.225 166.404 183.225 166.284C183.225 165.66 183.597 165.144 184.341 164.736C185.085 164.304 185.829 164.088 186.573 164.088C186.765 164.088 186.909 164.1 187.005 164.124C188.421 164.34 190.041 164.472 191.865 164.52Z" fill="#2096F0"/>
<path d="M164.735 188.964C163.607 188.94 163.043 188.592 163.043 187.92C163.043 187.584 163.199 187.212 163.511 186.804C163.847 186.396 164.255 186.048 164.735 185.76C165.239 185.472 165.731 185.328 166.211 185.328L167.363 185.4C167.339 184.944 167.279 184.26 167.183 183.348C167.039 182.196 166.967 181.32 166.967 180.72C166.967 180.384 166.979 180.132 167.003 179.964C167.051 179.388 167.231 178.836 167.543 178.308C167.879 177.756 168.323 177.156 168.875 176.508C167.363 176.196 166.439 175.596 166.103 174.708C166.007 174.444 165.959 174.144 165.959 173.808C165.959 173.424 166.031 172.872 166.175 172.152C166.199 172.032 166.235 171.852 166.283 171.612C166.331 171.348 166.355 171.132 166.355 170.964C166.403 170.244 166.427 169.716 166.427 169.38C166.427 168.66 166.391 167.94 166.319 167.22C165.503 167.148 164.267 167.088 162.611 167.04C161.963 167.016 161.639 166.836 161.639 166.5C161.639 166.26 161.831 165.96 162.215 165.6C162.599 165.24 163.043 164.928 163.547 164.664C164.051 164.376 164.459 164.232 164.771 164.232H166.355C167.435 164.232 168.227 164.184 168.731 164.088C168.875 164.064 169.079 164.052 169.343 164.052C170.375 164.052 170.939 164.448 171.035 165.24C171.179 166.488 171.251 167.724 171.251 168.948C171.251 169.692 171.239 170.244 171.215 170.604C171.191 170.772 171.143 171.036 171.071 171.396C171.023 171.756 170.999 172.056 170.999 172.296C170.999 172.536 171.035 172.716 171.107 172.836C171.299 173.124 171.707 173.268 172.331 173.268C172.979 173.244 173.327 173.232 173.375 173.232C173.879 173.256 174.299 173.4 174.635 173.664C174.971 173.904 175.139 174.216 175.139 174.6C175.139 174.912 175.019 175.224 174.779 175.536L173.879 176.688C173.255 177.456 172.787 178.128 172.475 178.704C172.187 179.256 172.043 179.916 172.043 180.684C172.043 181.044 172.067 181.464 172.115 181.944C172.163 182.424 172.199 182.772 172.223 182.988C172.367 183.996 172.439 184.776 172.439 185.328C172.439 185.712 172.403 186.108 172.331 186.516C172.235 186.996 172.007 187.428 171.647 187.812C171.287 188.172 170.867 188.424 170.387 188.568C169.475 188.856 168.311 189 166.895 189L164.735 188.964Z" fill="white"/>
<path d="M149.964 184.536L150.911 184.215L150.681 183.536H149.964V184.536ZM140.532 184.536V183.536H139.815L139.585 184.215L140.532 184.536ZM139.02 189V190H139.737L139.967 189.321L139.02 189ZM132.576 189L131.636 188.66L131.151 190H132.576V189ZM141.72 163.728V162.728H141.018L140.78 163.388L141.72 163.728ZM148.848 163.728L149.788 163.388L149.55 162.728H148.848V163.728ZM157.992 189V190H159.417L158.932 188.66L157.992 189ZM151.476 189L150.529 189.321L150.759 190H151.476V189ZM148.38 179.784V180.784H149.774L149.327 179.463L148.38 179.784ZM145.248 170.532L146.195 170.211L145.243 167.397L144.3 170.215L145.248 170.532ZM142.152 179.784L141.204 179.467L140.763 180.784H142.152V179.784ZM149.964 184.536V183.536H140.532V184.536V185.536H149.964V184.536ZM140.532 184.536L139.585 184.215L138.073 188.679L139.02 189L139.967 189.321L141.479 184.857L140.532 184.536ZM139.02 189V188H132.576V189V190H139.02V189ZM132.576 189L133.516 189.34L142.66 164.068L141.72 163.728L140.78 163.388L131.636 188.66L132.576 189ZM141.72 163.728V164.728H148.848V163.728V162.728H141.72V163.728ZM148.848 163.728L147.908 164.068L157.052 189.34L157.992 189L158.932 188.66L149.788 163.388L148.848 163.728ZM157.992 189V188H151.476V189V190H157.992V189ZM151.476 189L152.423 188.679L150.911 184.215L149.964 184.536L149.017 184.857L150.529 189.321L151.476 189ZM148.38 179.784L149.327 179.463L146.195 170.211L145.248 170.532L144.301 170.853L147.433 180.105L148.38 179.784ZM145.248 170.532L144.3 170.215L141.204 179.467L142.152 179.784L143.1 180.101L146.196 170.849L145.248 170.532ZM142.152 179.784V180.784H148.38V179.784V178.784H142.152V179.784ZM164.735 188.964L164.714 189.964L164.718 189.964L164.735 188.964ZM163.511 186.804L162.739 186.168L162.728 186.182L162.717 186.197L163.511 186.804ZM164.735 185.76L164.239 184.892L164.23 184.897L164.22 184.903L164.735 185.76ZM166.211 185.328L166.273 184.33L166.242 184.328H166.211V185.328ZM167.363 185.4L167.301 186.398L168.421 186.468L168.362 185.347L167.363 185.4ZM167.183 183.348L168.177 183.243L168.176 183.234L168.175 183.224L167.183 183.348ZM167.003 179.964L167.993 180.105L167.997 180.076L168 180.047L167.003 179.964ZM167.543 178.308L166.689 177.788L166.682 177.799L167.543 178.308ZM168.875 176.508L169.636 177.156L170.732 175.87L169.077 175.529L168.875 176.508ZM166.103 174.708L165.163 175.05L165.168 175.062L166.103 174.708ZM166.175 172.152L165.194 171.956L165.194 171.956L166.175 172.152ZM166.283 171.612L167.264 171.808L167.265 171.8L167.267 171.791L166.283 171.612ZM166.355 170.964L165.357 170.897L165.355 170.931V170.964H166.355ZM166.319 167.22L167.314 167.12L167.232 166.297L166.407 166.224L166.319 167.22ZM162.611 167.04L162.574 168.039L162.582 168.04L162.611 167.04ZM163.547 164.664L164.011 165.55L164.027 165.541L164.043 165.532L163.547 164.664ZM168.731 164.088L168.567 163.102L168.555 163.104L168.544 163.106L168.731 164.088ZM171.035 165.24L172.028 165.125L172.028 165.12L171.035 165.24ZM171.215 170.604L172.205 170.745L172.21 170.708L172.213 170.671L171.215 170.604ZM171.071 171.396L170.09 171.2L170.084 171.232L170.08 171.264L171.071 171.396ZM171.107 172.836L170.249 173.35L170.262 173.371L170.275 173.391L171.107 172.836ZM172.331 173.268V174.268H172.349L172.368 174.267L172.331 173.268ZM173.375 173.232L173.423 172.233L173.399 172.232H173.375V173.232ZM174.635 173.664L174.017 174.45L174.035 174.464L174.054 174.478L174.635 173.664ZM174.779 175.536L175.567 176.152L175.572 176.146L174.779 175.536ZM173.879 176.688L174.655 177.319L174.661 177.311L174.667 177.304L173.879 176.688ZM172.475 178.704L171.596 178.228L171.592 178.235L171.588 178.241L172.475 178.704ZM172.115 181.944L171.12 182.044L171.12 182.044L172.115 181.944ZM172.223 182.988L171.229 183.098L171.231 183.114L171.233 183.129L172.223 182.988ZM172.331 186.516L173.312 186.712L173.314 186.701L173.316 186.69L172.331 186.516ZM171.647 187.812L172.354 188.519L172.365 188.508L172.377 188.496L171.647 187.812ZM170.387 188.568L170.1 187.61L170.093 187.612L170.086 187.614L170.387 188.568ZM166.895 189L166.878 190L166.887 190H166.895V189ZM164.735 188.964L164.756 187.964C164.521 187.959 164.342 187.938 164.209 187.909C164.076 187.879 164.012 187.847 163.991 187.834C163.976 187.825 164 187.837 164.024 187.879C164.047 187.921 164.043 187.945 164.043 187.92H163.043H162.043C162.043 188.597 162.359 189.177 162.941 189.536C163.447 189.848 164.082 189.95 164.714 189.964L164.735 188.964ZM163.043 187.92H164.043C164.043 187.893 164.06 187.732 164.305 187.411L163.511 186.804L162.717 186.197C162.338 186.692 162.043 187.275 162.043 187.92H163.043ZM163.511 186.804L164.283 187.44C164.542 187.125 164.861 186.85 165.249 186.617L164.735 185.76L164.22 184.903C163.648 185.246 163.152 185.667 162.739 186.168L163.511 186.804ZM164.735 185.76L165.231 186.628C165.616 186.409 165.938 186.328 166.211 186.328V185.328V184.328C165.524 184.328 164.862 184.535 164.239 184.892L164.735 185.76ZM166.211 185.328L166.149 186.326L167.301 186.398L167.363 185.4L167.425 184.402L166.273 184.33L166.211 185.328ZM167.363 185.4L168.362 185.347C168.336 184.864 168.274 184.159 168.177 183.243L167.183 183.348L166.188 183.453C166.284 184.361 166.342 185.024 166.364 185.453L167.363 185.4ZM167.183 183.348L168.175 183.224C168.033 182.083 167.967 181.256 167.967 180.72H166.967H165.967C165.967 181.384 166.045 182.309 166.191 183.472L167.183 183.348ZM166.967 180.72H167.967C167.967 180.395 167.979 180.201 167.993 180.105L167.003 179.964L166.013 179.823C165.979 180.063 165.967 180.373 165.967 180.72H166.967ZM167.003 179.964L168 180.047C168.034 179.63 168.164 179.223 168.404 178.817L167.543 178.308L166.682 177.799C166.298 178.449 166.068 179.146 166.006 179.881L167.003 179.964ZM167.543 178.308L168.397 178.828C168.699 178.333 169.108 177.776 169.636 177.156L168.875 176.508L168.114 175.86C167.537 176.536 167.059 177.179 166.689 177.788L167.543 178.308ZM168.875 176.508L169.077 175.529C167.684 175.241 167.191 174.759 167.038 174.354L166.103 174.708L165.168 175.062C165.687 176.433 167.042 177.151 168.673 177.487L168.875 176.508ZM166.103 174.708L167.043 174.366C166.994 174.231 166.959 174.05 166.959 173.808H165.959H164.959C164.959 174.238 165.02 174.657 165.163 175.05L166.103 174.708ZM165.959 173.808H166.959C166.959 173.525 167.015 173.051 167.156 172.348L166.175 172.152L165.194 171.956C165.047 172.693 164.959 173.323 164.959 173.808H165.959ZM166.175 172.152L167.156 172.348C167.18 172.228 167.216 172.048 167.264 171.808L166.283 171.612L165.302 171.416C165.254 171.656 165.218 171.836 165.194 171.956L166.175 172.152ZM166.283 171.612L167.267 171.791C167.32 171.498 167.355 171.217 167.355 170.964H166.355H165.355C165.355 171.047 165.342 171.198 165.299 171.433L166.283 171.612ZM166.355 170.964L167.353 171.031C167.401 170.307 167.427 169.751 167.427 169.38H166.427H165.427C165.427 169.681 165.405 170.181 165.357 170.897L166.355 170.964ZM166.427 169.38H167.427C167.427 168.627 167.389 167.873 167.314 167.12L166.319 167.22L165.324 167.32C165.393 168.007 165.427 168.693 165.427 169.38H166.427ZM166.319 167.22L166.407 166.224C165.56 166.149 164.3 166.089 162.64 166.04L162.611 167.04L162.582 168.04C164.234 168.087 165.446 168.147 166.231 168.216L166.319 167.22ZM162.611 167.04L162.648 166.041C162.526 166.036 162.443 166.025 162.391 166.014C162.337 166.003 162.337 165.996 162.368 166.013C162.402 166.032 162.48 166.085 162.547 166.191C162.616 166.302 162.639 166.416 162.639 166.5H161.639H160.639C160.639 167.075 160.957 167.517 161.396 167.761C161.763 167.965 162.194 168.025 162.574 168.039L162.611 167.04ZM161.639 166.5H162.639C162.639 166.642 162.585 166.696 162.625 166.634C162.661 166.578 162.742 166.477 162.899 166.33L162.215 165.6L161.531 164.87C161.304 165.083 161.097 165.312 160.941 165.556C160.788 165.794 160.639 166.118 160.639 166.5H161.639ZM162.215 165.6L162.899 166.33C163.212 166.036 163.581 165.775 164.011 165.55L163.547 164.664L163.083 163.778C162.505 164.081 161.986 164.444 161.531 164.87L162.215 165.6ZM163.547 164.664L164.043 165.532C164.506 165.268 164.726 165.232 164.771 165.232V164.232V163.232C164.192 163.232 163.596 163.484 163.051 163.796L163.547 164.664ZM164.771 164.232V165.232H166.355V164.232V163.232H164.771V164.232ZM166.355 164.232V165.232C167.445 165.232 168.316 165.185 168.918 165.07L168.731 164.088L168.544 163.106C168.138 163.183 167.425 163.232 166.355 163.232V164.232ZM168.731 164.088L168.895 165.074C168.958 165.064 169.098 165.052 169.343 165.052V164.052V163.052C169.06 163.052 168.792 163.064 168.567 163.102L168.731 164.088ZM169.343 164.052V165.052C169.75 165.052 169.916 165.133 169.965 165.167C169.984 165.181 169.993 165.191 170.001 165.206C170.011 165.224 170.031 165.269 170.042 165.36L171.035 165.24L172.028 165.12C171.952 164.491 171.666 163.918 171.115 163.531C170.6 163.169 169.968 163.052 169.343 163.052V164.052ZM171.035 165.24L170.042 165.355C170.181 166.566 170.251 167.763 170.251 168.948H171.251H172.251C172.251 167.685 172.177 166.41 172.028 165.125L171.035 165.24ZM171.251 168.948H170.251C170.251 169.688 170.239 170.212 170.217 170.537L171.215 170.604L172.213 170.671C172.239 170.276 172.251 169.696 172.251 168.948H171.251ZM171.215 170.604L170.225 170.463C170.205 170.601 170.162 170.842 170.09 171.2L171.071 171.396L172.052 171.592C172.124 171.23 172.177 170.943 172.205 170.745L171.215 170.604ZM171.071 171.396L170.08 171.264C170.029 171.648 169.999 171.996 169.999 172.296H170.999H171.999C171.999 172.116 172.017 171.864 172.062 171.528L171.071 171.396ZM170.999 172.296H169.999C169.999 172.603 170.039 173 170.249 173.35L171.107 172.836L171.964 172.322C171.984 172.354 171.995 172.381 172.001 172.396C172.006 172.411 172.007 172.419 172.007 172.415C172.006 172.411 172.004 172.4 172.002 172.379C172 172.359 171.999 172.331 171.999 172.296H170.999ZM171.107 172.836L170.275 173.391C170.761 174.12 171.634 174.268 172.331 174.268V173.268V172.268C172.087 172.268 171.951 172.239 171.89 172.217C171.838 172.199 171.888 172.204 171.939 172.281L171.107 172.836ZM172.331 173.268L172.368 174.267C172.692 174.255 172.94 174.246 173.112 174.24C173.199 174.237 173.266 174.235 173.313 174.234C173.368 174.232 173.382 174.232 173.375 174.232V173.232V172.232C173.303 172.232 172.924 172.245 172.294 172.269L172.331 173.268ZM173.375 173.232L173.327 174.231C173.662 174.247 173.872 174.337 174.017 174.45L174.635 173.664L175.253 172.878C174.725 172.463 174.096 172.265 173.423 172.233L173.375 173.232ZM174.635 173.664L174.054 174.478C174.118 174.524 174.132 174.551 174.132 174.552C174.133 174.554 174.134 174.556 174.135 174.56C174.137 174.565 174.139 174.577 174.139 174.6H175.139H176.139C176.139 173.866 175.792 173.261 175.216 172.85L174.635 173.664ZM175.139 174.6H174.139C174.139 174.639 174.128 174.743 173.986 174.926L174.779 175.536L175.572 176.146C175.91 175.705 176.139 175.185 176.139 174.6H175.139ZM174.779 175.536L173.991 174.92L173.091 176.072L173.879 176.688L174.667 177.304L175.567 176.152L174.779 175.536ZM173.879 176.688L173.103 176.057C172.457 176.852 171.948 177.577 171.596 178.228L172.475 178.704L173.354 179.18C173.626 178.679 174.053 178.06 174.655 177.319L173.879 176.688ZM172.475 178.704L171.588 178.241C171.21 178.966 171.043 179.792 171.043 180.684H172.043H173.043C173.043 180.04 173.163 179.546 173.362 179.167L172.475 178.704ZM172.043 180.684H171.043C171.043 181.086 171.07 181.541 171.12 182.044L172.115 181.944L173.11 181.844C173.064 181.387 173.043 181.002 173.043 180.684H172.043ZM172.115 181.944L171.12 182.044C171.168 182.524 171.204 182.877 171.229 183.098L172.223 182.988L173.217 182.878C173.194 182.667 173.158 182.324 173.11 181.844L172.115 181.944ZM172.223 182.988L171.233 183.129C171.375 184.123 171.439 184.847 171.439 185.328H172.439H173.439C173.439 184.705 173.359 183.869 173.213 182.847L172.223 182.988ZM172.439 185.328H171.439C171.439 185.649 171.409 185.987 171.346 186.342L172.331 186.516L173.316 186.69C173.397 186.229 173.439 185.775 173.439 185.328H172.439ZM172.331 186.516L171.35 186.32C171.294 186.603 171.16 186.869 170.917 187.128L171.647 187.812L172.377 188.496C172.854 187.987 173.176 187.389 173.312 186.712L172.331 186.516ZM171.647 187.812L170.94 187.105C170.695 187.35 170.418 187.515 170.1 187.61L170.387 188.568L170.674 189.526C171.315 189.333 171.879 188.994 172.354 188.519L171.647 187.812ZM170.387 188.568L170.086 187.614C169.306 187.861 168.253 188 166.895 188V189V190C168.369 190 169.644 189.851 170.688 189.522L170.387 188.568ZM166.895 189L166.912 188L164.752 187.964L164.735 188.964L164.718 189.964L166.878 190L166.895 189ZM191.865 164.52L191.902 163.521L191.891 163.52L191.865 164.52ZM192.225 165.96L192.909 166.69L192.91 166.688L192.225 165.96ZM190.857 166.932L190.378 166.054L190.369 166.059L190.361 166.064L190.857 166.932ZM188.625 167.364V166.364H187.378L187.649 167.581L188.625 167.364ZM189.165 173.772L188.176 173.624L188.175 173.631L189.165 173.772ZM187.077 176.58L186.508 175.758L185.149 176.699L186.613 177.466L187.077 176.58ZM188.841 178.704L187.858 178.89L187.859 178.895L188.841 178.704ZM188.949 185.544L187.951 185.485L187.877 186.736L189.113 186.53L188.949 185.544ZM190.245 185.256L190.487 186.226L190.487 186.226L190.245 185.256ZM192.117 185.508L191.41 186.215L191.427 186.232L191.444 186.248L192.117 185.508ZM192.009 187.704L191.237 187.068L191.226 187.082L191.215 187.097L192.009 187.704ZM190.713 188.604L191.02 189.556L191.031 189.552L191.041 189.548L190.713 188.604ZM185.637 189.432L185.599 188.433L185.592 188.433L185.584 188.433L185.637 189.432ZM184.377 189.072L184.943 188.248L184.938 188.244L184.932 188.24L184.377 189.072ZM183.837 188.064L182.837 188.047L182.837 188.055V188.064H183.837ZM183.909 181.26L184.899 181.401L184.899 181.401L183.909 181.26ZM183.657 179.784L184.466 179.196L184.439 179.159L184.409 179.125L183.657 179.784ZM182.217 179.136L181.892 180.082L181.909 180.088L181.927 180.093L182.217 179.136ZM180.813 178.668L180.425 179.59L180.48 179.613L180.538 179.63L180.813 178.668ZM180.525 176.688L179.725 176.088L179.719 176.097L180.525 176.688ZM181.425 175.86L180.964 174.973L180.957 174.976L180.951 174.98L181.425 175.86ZM182.325 175.392L182.786 176.279L182.789 176.278L182.325 175.392ZM183.441 174.708L182.853 173.899L182.834 173.913L182.816 173.927L183.441 174.708ZM184.017 173.952L183.098 173.558L183.09 173.575L183.084 173.593L184.017 173.952ZM184.197 172.656L185.196 172.611L185.195 172.597L185.194 172.583L184.197 172.656ZM183.261 166.572L184.235 166.348L184.225 166.301L184.21 166.256L183.261 166.572ZM184.341 164.736L184.822 165.613L184.832 165.607L184.843 165.601L184.341 164.736ZM187.005 164.124L186.762 165.094L186.808 165.106L186.854 165.113L187.005 164.124ZM191.865 164.52L191.828 165.519C191.952 165.524 192.04 165.535 192.096 165.546C192.156 165.558 192.16 165.566 192.134 165.552C192.104 165.536 192.022 165.486 191.947 165.376C191.868 165.258 191.837 165.129 191.837 165.024H192.837H193.837C193.837 164.763 193.766 164.496 193.605 164.258C193.45 164.028 193.246 163.876 193.054 163.776C192.696 163.59 192.276 163.535 191.902 163.521L191.865 164.52ZM192.837 165.024H191.837C191.837 164.942 191.854 164.889 191.861 164.871C191.867 164.854 191.867 164.86 191.847 164.891C191.804 164.957 191.712 165.07 191.54 165.232L192.225 165.96L192.91 166.688C193.146 166.466 193.36 166.231 193.521 165.985C193.675 165.75 193.837 165.418 193.837 165.024H192.837ZM192.225 165.96L191.541 165.23C191.227 165.525 190.842 165.801 190.378 166.054L190.857 166.932L191.336 167.81C191.928 167.487 192.455 167.115 192.909 166.69L192.225 165.96ZM190.857 166.932L190.361 166.064C189.898 166.328 189.678 166.364 189.633 166.364V167.364V168.364C190.212 168.364 190.808 168.112 191.353 167.8L190.857 166.932ZM189.633 167.364V166.364H188.625V167.364V168.364H189.633V167.364ZM188.625 167.364L187.649 167.581C188.072 169.486 188.273 171.04 188.273 172.26H189.273H190.273C190.273 170.84 190.042 169.13 189.601 167.147L188.625 167.364ZM189.273 172.26H188.273C188.273 172.743 188.24 173.197 188.176 173.624L189.165 173.772L190.154 173.92C190.234 173.387 190.273 172.833 190.273 172.26H189.273ZM189.165 173.772L188.175 173.631C188.086 174.252 187.639 174.974 186.508 175.758L187.077 176.58L187.646 177.402C189.01 176.458 189.956 175.308 190.155 173.913L189.165 173.772ZM187.077 176.58L186.613 177.466C187.427 177.892 187.762 178.378 187.858 178.89L188.841 178.704L189.823 178.518C189.584 177.254 188.743 176.324 187.541 175.694L187.077 176.58ZM188.841 178.704L187.859 178.895C188.012 179.68 188.093 180.622 188.093 181.728H189.093H190.093C190.093 180.53 190.006 179.456 189.823 178.513L188.841 178.704ZM189.093 181.728H188.093C188.093 182.611 188.046 183.86 187.951 185.485L188.949 185.544L189.947 185.603C190.044 183.964 190.093 182.669 190.093 181.728H189.093ZM188.949 185.544L189.113 186.53C189.442 186.476 189.906 186.371 190.487 186.226L190.245 185.256L190.002 184.286C189.432 184.429 189.031 184.516 188.785 184.558L188.949 185.544ZM190.245 185.256L190.487 186.226C190.714 186.169 190.895 186.148 191.037 186.148V185.148V184.148C190.699 184.148 190.352 184.199 190.002 184.286L190.245 185.256ZM191.037 185.148V186.148C191.197 186.148 191.296 186.168 191.351 186.187C191.377 186.196 191.392 186.204 191.4 186.208C191.407 186.212 191.409 186.215 191.41 186.215L192.117 185.508L192.824 184.801C192.33 184.307 191.671 184.148 191.037 184.148V185.148ZM192.117 185.508L191.444 186.248C191.483 186.283 191.513 186.318 191.513 186.444H192.513H193.513C193.513 185.802 193.279 185.213 192.79 184.768L192.117 185.508ZM192.513 186.444H191.513C191.513 186.596 191.46 186.798 191.237 187.068L192.009 187.704L192.781 188.34C193.23 187.794 193.513 187.156 193.513 186.444H192.513ZM192.009 187.704L191.215 187.097C191.037 187.328 190.778 187.523 190.384 187.66L190.713 188.604L191.041 189.548C191.752 189.301 192.356 188.896 192.803 188.311L192.009 187.704ZM190.713 188.604L190.406 187.652C189.021 188.099 187.422 188.363 185.599 188.433L185.637 189.432L185.675 190.431C187.644 190.357 189.429 190.069 191.02 189.556L190.713 188.604ZM185.637 189.432L185.584 188.433C185.353 188.446 185.15 188.39 184.943 188.248L184.377 189.072L183.81 189.896C184.372 190.282 185.009 190.466 185.689 190.431L185.637 189.432ZM184.377 189.072L184.932 188.24C184.87 188.199 184.856 188.172 184.853 188.168C184.851 188.163 184.837 188.137 184.837 188.064H183.837H182.837C182.837 188.831 183.185 189.479 183.822 189.904L184.377 189.072ZM183.837 188.064L184.837 188.081C184.861 186.68 184.873 184.585 184.873 181.8H183.873H182.873C182.873 184.583 182.861 186.664 182.837 188.047L183.837 188.064ZM183.873 181.8H184.873C184.873 181.649 184.882 181.517 184.899 181.401L183.909 181.26L182.919 181.119C182.887 181.339 182.873 181.567 182.873 181.8H183.873ZM183.909 181.26L184.899 181.401C184.929 181.187 184.945 180.972 184.945 180.756H183.945H182.945C182.945 180.876 182.936 180.997 182.919 181.119L183.909 181.26ZM183.945 180.756H184.945C184.945 180.199 184.803 179.659 184.466 179.196L183.657 179.784L182.848 180.372C182.895 180.437 182.945 180.545 182.945 180.756H183.945ZM183.657 179.784L184.409 179.125C184.175 178.857 183.842 178.683 183.581 178.566C183.287 178.433 182.924 178.305 182.507 178.179L182.217 179.136L181.927 180.093C182.302 180.207 182.575 180.307 182.761 180.39C182.853 180.431 182.909 180.463 182.94 180.482C182.975 180.504 182.949 180.494 182.904 180.443L183.657 179.784ZM182.217 179.136L182.542 178.19C181.786 177.93 181.287 177.764 181.088 177.706L180.813 178.668L180.538 179.63C180.674 179.668 181.112 179.814 181.892 180.082L182.217 179.136ZM180.813 178.668L181.201 177.746C181.085 177.698 181.076 177.667 181.096 177.694C181.107 177.708 181.117 177.727 181.124 177.747C181.13 177.767 181.129 177.776 181.129 177.768H180.129H179.129C179.129 178.171 179.246 178.565 179.504 178.904C179.752 179.231 180.085 179.446 180.425 179.59L180.813 178.668ZM180.129 177.768H181.129C181.129 177.667 181.162 177.51 181.331 177.279L180.525 176.688L179.719 176.097C179.359 176.586 179.129 177.149 179.129 177.768H180.129ZM180.525 176.688L181.325 177.288C181.555 176.981 181.752 176.82 181.899 176.74L181.425 175.86L180.951 174.98C180.474 175.236 180.071 175.627 179.725 176.088L180.525 176.688ZM181.425 175.86L181.886 176.747L182.786 176.279L182.325 175.392L181.864 174.505L180.964 174.973L181.425 175.86ZM182.325 175.392L182.789 176.278C183.31 176.005 183.75 175.741 184.066 175.489L183.441 174.708L182.816 173.927C182.652 174.059 182.347 174.251 181.861 174.506L182.325 175.392ZM183.441 174.708L184.029 175.517C184.453 175.208 184.763 174.798 184.95 174.311L184.017 173.952L183.084 173.593C183.031 173.73 182.957 173.824 182.853 173.899L183.441 174.708ZM184.017 173.952L184.936 174.346C185.16 173.824 185.224 173.227 185.196 172.611L184.197 172.656L183.198 172.701C183.218 173.141 183.162 173.408 183.098 173.558L184.017 173.952ZM184.197 172.656L185.194 172.583C185.046 170.56 184.726 168.481 184.235 166.348L183.261 166.572L182.286 166.796C182.756 168.839 183.06 170.816 183.2 172.729L184.197 172.656ZM183.261 166.572L184.21 166.256C184.217 166.277 184.221 166.294 184.223 166.304C184.225 166.315 184.226 166.321 184.226 166.322C184.226 166.323 184.226 166.321 184.226 166.314C184.225 166.307 184.225 166.297 184.225 166.284H183.225H182.225C182.225 166.457 182.24 166.673 182.312 166.888L183.261 166.572ZM183.225 166.284H184.225C184.225 166.154 184.266 165.917 184.822 165.613L184.341 164.736L183.86 163.859C182.927 164.371 182.225 165.166 182.225 166.284H183.225ZM184.341 164.736L184.843 165.601C185.459 165.243 186.031 165.088 186.573 165.088V164.088V163.088C185.627 163.088 184.711 163.365 183.839 163.871L184.341 164.736ZM186.573 164.088V165.088C186.65 165.088 186.705 165.09 186.742 165.094C186.782 165.097 186.785 165.1 186.762 165.094L187.005 164.124L187.247 163.154C187.029 163.099 186.785 163.088 186.573 163.088V164.088ZM187.005 164.124L186.854 165.113C188.321 165.336 189.984 165.471 191.839 165.52L191.865 164.52L191.891 163.52C190.098 163.473 188.521 163.344 187.156 163.135L187.005 164.124Z" fill="black" mask="url(#path-2-outside-1_627_16)"/>
<mask id="path-4-outside-2_627_16" maskUnits="userSpaceOnUse" x="192" y="176" width="36" height="15" fill="black">
<rect fill="white" x="192" y="176" width="36" height="15"/>
<path d="M198.32 189C198.413 188.973 198.473 188.873 198.5 188.7C198.527 188.513 198.467 188.22 198.32 187.82C198.267 187.673 198.14 187.373 197.94 186.92C197.753 186.467 197.52 185.92 197.24 185.28C196.973 184.627 196.687 183.94 196.38 183.22C196.073 182.5 195.773 181.8 195.48 181.12C195.187 180.44 194.927 179.84 194.7 179.32C194.487 178.8 194.327 178.427 194.22 178.2C194.047 177.773 193.86 177.473 193.66 177.3C193.46 177.113 193.307 177.013 193.2 177H196.82C196.727 177.013 196.667 177.113 196.64 177.3C196.627 177.487 196.693 177.8 196.84 178.24C196.907 178.413 197.013 178.72 197.16 179.16C197.32 179.6 197.513 180.127 197.74 180.74C197.967 181.34 198.207 181.993 198.46 182.7C198.713 183.393 198.973 184.1 199.24 184.82C199.507 185.527 199.753 186.2 199.98 186.84H200.02C200.233 186.227 200.453 185.573 200.68 184.88C200.92 184.173 201.153 183.473 201.38 182.78C201.607 182.073 201.82 181.42 202.02 180.82C202.22 180.207 202.393 179.673 202.54 179.22C202.687 178.767 202.787 178.44 202.84 178.24C202.96 177.8 203.007 177.487 202.98 177.3C202.953 177.113 202.907 177.013 202.84 177H206.66C206.58 177 206.527 177.093 206.5 177.28C206.473 177.467 206.527 177.793 206.66 178.26C206.713 178.433 206.807 178.74 206.94 179.18C207.087 179.62 207.26 180.147 207.46 180.76C207.66 181.36 207.873 182.013 208.1 182.72C208.34 183.413 208.573 184.12 208.8 184.84C209.04 185.547 209.267 186.213 209.48 186.84H209.52C209.76 186.2 210.013 185.527 210.28 184.82C210.547 184.113 210.807 183.413 211.06 182.72C211.327 182.013 211.573 181.353 211.8 180.74C212.027 180.127 212.22 179.6 212.38 179.16C212.54 178.72 212.647 178.413 212.7 178.24C212.847 177.787 212.9 177.467 212.86 177.28C212.833 177.093 212.78 177 212.7 177H216.32C216.227 177.013 216.093 177.12 215.92 177.32C215.747 177.507 215.547 177.813 215.32 178.24C215.213 178.44 215.047 178.787 214.82 179.28C214.593 179.76 214.333 180.327 214.04 180.98C213.747 181.633 213.447 182.313 213.14 183.02C212.833 183.713 212.54 184.387 212.26 185.04C211.98 185.68 211.74 186.247 211.54 186.74C211.353 187.22 211.227 187.56 211.16 187.76C211.027 188.2 210.973 188.513 211 188.7C211.027 188.887 211.08 188.987 211.16 189H207.76C207.84 188.987 207.893 188.887 207.92 188.7C207.947 188.513 207.893 188.2 207.76 187.76C207.707 187.587 207.607 187.28 207.46 186.84C207.313 186.387 207.133 185.853 206.92 185.24C206.707 184.613 206.473 183.947 206.22 183.24C205.967 182.52 205.713 181.8 205.46 181.08C205.207 180.347 204.967 179.653 204.74 179H204.7C204.473 179.653 204.233 180.347 203.98 181.08C203.727 181.8 203.473 182.52 203.22 183.24C202.98 183.96 202.753 184.633 202.54 185.26C202.327 185.873 202.147 186.4 202 186.84C201.867 187.28 201.773 187.587 201.72 187.76C201.6 188.187 201.553 188.5 201.58 188.7C201.607 188.887 201.653 188.987 201.72 189H198.32ZM221.64 189.2C220.253 189.2 219.16 188.987 218.36 188.56C217.573 188.133 217.02 187.553 216.7 186.82C216.38 186.087 216.22 185.26 216.22 184.34C216.22 182.713 216.66 181.493 217.54 180.68C218.433 179.867 219.733 179.46 221.44 179.46C222.48 179.46 223.353 179.527 224.06 179.66C224.766 179.793 225.253 179.92 225.52 180.04V180.44L225.92 182.18C225.653 181.9 225.146 181.613 224.4 181.32C223.653 181.013 222.713 180.86 221.58 180.86C221.006 180.86 220.46 180.96 219.94 181.16C219.433 181.347 219.02 181.693 218.7 182.2C218.393 182.707 218.24 183.427 218.24 184.36C218.24 185.267 218.406 185.973 218.74 186.48C219.073 186.973 219.533 187.313 220.12 187.5C220.706 187.687 221.373 187.78 222.12 187.78C223.066 187.78 223.846 187.633 224.46 187.34C225.086 187.047 225.506 186.76 225.72 186.48V186.88L225.92 188.24C225.666 188.453 225.166 188.667 224.42 188.88C223.686 189.093 222.76 189.2 221.64 189.2Z"/>
</mask>
<path d="M198.32 189C198.413 188.973 198.473 188.873 198.5 188.7C198.527 188.513 198.467 188.22 198.32 187.82C198.267 187.673 198.14 187.373 197.94 186.92C197.753 186.467 197.52 185.92 197.24 185.28C196.973 184.627 196.687 183.94 196.38 183.22C196.073 182.5 195.773 181.8 195.48 181.12C195.187 180.44 194.927 179.84 194.7 179.32C194.487 178.8 194.327 178.427 194.22 178.2C194.047 177.773 193.86 177.473 193.66 177.3C193.46 177.113 193.307 177.013 193.2 177H196.82C196.727 177.013 196.667 177.113 196.64 177.3C196.627 177.487 196.693 177.8 196.84 178.24C196.907 178.413 197.013 178.72 197.16 179.16C197.32 179.6 197.513 180.127 197.74 180.74C197.967 181.34 198.207 181.993 198.46 182.7C198.713 183.393 198.973 184.1 199.24 184.82C199.507 185.527 199.753 186.2 199.98 186.84H200.02C200.233 186.227 200.453 185.573 200.68 184.88C200.92 184.173 201.153 183.473 201.38 182.78C201.607 182.073 201.82 181.42 202.02 180.82C202.22 180.207 202.393 179.673 202.54 179.22C202.687 178.767 202.787 178.44 202.84 178.24C202.96 177.8 203.007 177.487 202.98 177.3C202.953 177.113 202.907 177.013 202.84 177H206.66C206.58 177 206.527 177.093 206.5 177.28C206.473 177.467 206.527 177.793 206.66 178.26C206.713 178.433 206.807 178.74 206.94 179.18C207.087 179.62 207.26 180.147 207.46 180.76C207.66 181.36 207.873 182.013 208.1 182.72C208.34 183.413 208.573 184.12 208.8 184.84C209.04 185.547 209.267 186.213 209.48 186.84H209.52C209.76 186.2 210.013 185.527 210.28 184.82C210.547 184.113 210.807 183.413 211.06 182.72C211.327 182.013 211.573 181.353 211.8 180.74C212.027 180.127 212.22 179.6 212.38 179.16C212.54 178.72 212.647 178.413 212.7 178.24C212.847 177.787 212.9 177.467 212.86 177.28C212.833 177.093 212.78 177 212.7 177H216.32C216.227 177.013 216.093 177.12 215.92 177.32C215.747 177.507 215.547 177.813 215.32 178.24C215.213 178.44 215.047 178.787 214.82 179.28C214.593 179.76 214.333 180.327 214.04 180.98C213.747 181.633 213.447 182.313 213.14 183.02C212.833 183.713 212.54 184.387 212.26 185.04C211.98 185.68 211.74 186.247 211.54 186.74C211.353 187.22 211.227 187.56 211.16 187.76C211.027 188.2 210.973 188.513 211 188.7C211.027 188.887 211.08 188.987 211.16 189H207.76C207.84 188.987 207.893 188.887 207.92 188.7C207.947 188.513 207.893 188.2 207.76 187.76C207.707 187.587 207.607 187.28 207.46 186.84C207.313 186.387 207.133 185.853 206.92 185.24C206.707 184.613 206.473 183.947 206.22 183.24C205.967 182.52 205.713 181.8 205.46 181.08C205.207 180.347 204.967 179.653 204.74 179H204.7C204.473 179.653 204.233 180.347 203.98 181.08C203.727 181.8 203.473 182.52 203.22 183.24C202.98 183.96 202.753 184.633 202.54 185.26C202.327 185.873 202.147 186.4 202 186.84C201.867 187.28 201.773 187.587 201.72 187.76C201.6 188.187 201.553 188.5 201.58 188.7C201.607 188.887 201.653 188.987 201.72 189H198.32ZM221.64 189.2C220.253 189.2 219.16 188.987 218.36 188.56C217.573 188.133 217.02 187.553 216.7 186.82C216.38 186.087 216.22 185.26 216.22 184.34C216.22 182.713 216.66 181.493 217.54 180.68C218.433 179.867 219.733 179.46 221.44 179.46C222.48 179.46 223.353 179.527 224.06 179.66C224.766 179.793 225.253 179.92 225.52 180.04V180.44L225.92 182.18C225.653 181.9 225.146 181.613 224.4 181.32C223.653 181.013 222.713 180.86 221.58 180.86C221.006 180.86 220.46 180.96 219.94 181.16C219.433 181.347 219.02 181.693 218.7 182.2C218.393 182.707 218.24 183.427 218.24 184.36C218.24 185.267 218.406 185.973 218.74 186.48C219.073 186.973 219.533 187.313 220.12 187.5C220.706 187.687 221.373 187.78 222.12 187.78C223.066 187.78 223.846 187.633 224.46 187.34C225.086 187.047 225.506 186.76 225.72 186.48V186.88L225.92 188.24C225.666 188.453 225.166 188.667 224.42 188.88C223.686 189.093 222.76 189.2 221.64 189.2Z" fill="white"/>
<path d="M198.32 189L198.045 188.038L198.32 190V189ZM198.5 188.7L199.488 188.852L199.49 188.841L198.5 188.7ZM198.32 187.82L197.38 188.162L197.381 188.164L198.32 187.82ZM197.94 186.92L197.015 187.301L197.02 187.312L197.025 187.324L197.94 186.92ZM197.24 185.28L196.314 185.658L196.319 185.669L196.324 185.681L197.24 185.28ZM196.38 183.22L197.3 182.828L197.3 182.828L196.38 183.22ZM195.48 181.12L194.562 181.516L194.562 181.516L195.48 181.12ZM194.7 179.32L193.775 179.7L193.779 179.71L193.783 179.72L194.7 179.32ZM194.22 178.2L193.294 178.576L193.304 178.601L193.315 178.626L194.22 178.2ZM193.66 177.3L192.978 178.031L192.991 178.044L193.005 178.056L193.66 177.3ZM193.2 177V176L193.076 177.992L193.2 177ZM196.82 177L196.961 177.99L196.82 176V177ZM196.64 177.3L195.65 177.159L195.645 177.194L195.643 177.229L196.64 177.3ZM196.84 178.24L195.891 178.556L195.899 178.578L195.907 178.599L196.84 178.24ZM197.16 179.16L196.211 179.476L196.216 179.489L196.22 179.502L197.16 179.16ZM197.74 180.74L196.802 181.087L196.805 181.093L197.74 180.74ZM198.46 182.7L197.519 183.037L197.521 183.043L198.46 182.7ZM199.24 184.82L198.302 185.167L198.304 185.173L199.24 184.82ZM199.98 186.84L199.037 187.174L199.273 187.84H199.98V186.84ZM200.02 186.84V187.84H200.731L200.964 187.169L200.02 186.84ZM200.68 184.88L199.733 184.558L199.73 184.569L200.68 184.88ZM201.38 182.78L202.331 183.091L202.332 183.085L201.38 182.78ZM202.02 180.82L202.969 181.136L202.971 181.13L202.02 180.82ZM202.54 179.22L201.589 178.912L201.589 178.912L202.54 179.22ZM202.84 178.24L201.875 177.977L201.874 177.982L202.84 178.24ZM202.98 177.3L201.99 177.441L201.99 177.441L202.98 177.3ZM202.84 177V176L202.644 177.981L202.84 177ZM206.5 177.28L205.51 177.139L205.51 177.139L206.5 177.28ZM206.66 178.26L205.698 178.535L205.701 178.544L205.704 178.554L206.66 178.26ZM206.94 179.18L205.983 179.47L205.987 179.483L205.991 179.496L206.94 179.18ZM207.46 180.76L206.509 181.07L206.511 181.076L207.46 180.76ZM208.1 182.72L207.148 183.025L207.151 183.036L207.155 183.047L208.1 182.72ZM208.8 184.84L207.846 185.14L207.85 185.151L207.853 185.162L208.8 184.84ZM209.48 186.84L208.533 187.162L208.764 187.84H209.48V186.84ZM209.52 186.84V187.84H210.213L210.456 187.191L209.52 186.84ZM210.28 184.82L209.344 184.467L209.344 184.467L210.28 184.82ZM211.06 182.72L210.124 182.367L210.121 182.377L211.06 182.72ZM211.8 180.74L212.738 181.087L212.738 181.087L211.8 180.74ZM212.38 179.16L213.32 179.502L213.32 179.502L212.38 179.16ZM212.7 178.24L211.749 177.932L211.746 177.939L211.744 177.946L212.7 178.24ZM212.86 177.28L211.87 177.421L211.875 177.456L211.882 177.49L212.86 177.28ZM216.32 177L216.461 177.99L216.32 176V177ZM215.92 177.32L216.653 178L216.664 177.988L216.676 177.975L215.92 177.32ZM215.32 178.24L216.202 178.711L216.203 178.709L215.32 178.24ZM214.82 179.28L215.724 179.707L215.729 179.697L214.82 179.28ZM213.14 183.02L214.055 183.425L214.057 183.418L213.14 183.02ZM212.26 185.04L213.176 185.441L213.179 185.434L212.26 185.04ZM211.54 186.74L210.613 186.364L210.611 186.371L210.608 186.378L211.54 186.74ZM211.16 187.76L210.211 187.444L210.207 187.457L210.203 187.47L211.16 187.76ZM211 188.7L210.01 188.841L210.01 188.841L211 188.7ZM211.16 189V190L211.324 188.014L211.16 189ZM207.76 189L207.596 188.014L207.76 190V189ZM207.92 188.7L208.91 188.841L208.91 188.841L207.92 188.7ZM207.76 187.76L208.717 187.47L208.716 187.466L207.76 187.76ZM207.46 186.84L206.509 187.148L206.511 187.156L207.46 186.84ZM206.92 185.24L205.973 185.562L205.976 185.569L206.92 185.24ZM206.22 183.24L205.277 183.572L205.279 183.577L206.22 183.24ZM205.46 181.08L204.515 181.407L204.517 181.412L205.46 181.08ZM204.74 179L205.685 178.672L205.452 178H204.74V179ZM204.7 179V178H203.988L203.755 178.672L204.7 179ZM203.98 181.08L204.923 181.412L204.925 181.407L203.98 181.08ZM203.22 183.24L202.277 182.908L202.274 182.916L202.271 182.924L203.22 183.24ZM202.54 185.26L203.485 185.589L203.487 185.582L202.54 185.26ZM202 186.84L201.051 186.524L201.047 186.537L201.043 186.55L202 186.84ZM201.72 187.76L200.764 187.466L200.761 187.478L200.757 187.489L201.72 187.76ZM201.58 188.7L200.589 188.832L200.59 188.841L201.58 188.7ZM201.72 189V190L201.916 188.019L201.72 189ZM198.32 189L198.595 189.962C199.3 189.76 199.452 189.087 199.488 188.852L198.5 188.7L197.512 188.548C197.509 188.565 197.516 188.493 197.578 188.391C197.65 188.269 197.801 188.108 198.045 188.038L198.32 189ZM198.5 188.7L199.49 188.841C199.555 188.385 199.408 187.882 199.259 187.476L198.32 187.82L197.381 188.164C197.444 188.335 197.478 188.458 197.495 188.54C197.514 188.633 197.5 188.626 197.51 188.559L198.5 188.7ZM198.32 187.82L199.26 187.478C199.193 187.295 199.052 186.963 198.855 186.516L197.94 186.92L197.025 187.324C197.228 187.783 197.34 188.052 197.38 188.162L198.32 187.82ZM197.94 186.92L198.865 186.539C198.674 186.077 198.438 185.523 198.156 184.879L197.24 185.28L196.324 185.681C196.602 186.317 196.832 186.856 197.015 187.301L197.94 186.92ZM197.24 185.28L198.166 184.902C197.897 184.244 197.608 183.552 197.3 182.828L196.38 183.22L195.46 183.612C195.765 184.328 196.05 185.01 196.314 185.658L197.24 185.28ZM196.38 183.22L197.3 182.828C196.993 182.107 196.692 181.405 196.398 180.724L195.48 181.12L194.562 181.516C194.854 182.195 195.154 182.893 195.46 183.612L196.38 183.22ZM195.48 181.12L196.398 180.724C196.105 180.043 195.844 179.442 195.617 178.92L194.7 179.32L193.783 179.72C194.009 180.238 194.269 180.837 194.562 181.516L195.48 181.12ZM194.7 179.32L195.625 178.94C195.411 178.419 195.243 178.026 195.125 177.774L194.22 178.2L193.315 178.626C193.41 178.828 193.562 179.181 193.775 179.7L194.7 179.32ZM194.22 178.2L195.146 177.824C194.952 177.344 194.692 176.871 194.315 176.544L193.66 177.3L193.005 178.056C193.028 178.076 193.142 178.203 193.294 178.576L194.22 178.2ZM193.66 177.3L194.342 176.569C194.219 176.453 194.084 176.34 193.941 176.247C193.815 176.165 193.599 176.042 193.324 176.008L193.2 177L193.076 177.992C192.983 177.981 192.918 177.956 192.889 177.943C192.858 177.93 192.844 177.92 192.849 177.923C192.852 177.925 192.865 177.934 192.889 177.953C192.912 177.972 192.941 177.997 192.978 178.031L193.66 177.3ZM193.2 177V178H196.82V177V176H193.2V177ZM196.82 177L196.679 176.01C196.264 176.069 195.992 176.329 195.848 176.571C195.72 176.784 195.672 177.005 195.65 177.159L196.64 177.3L197.63 177.441C197.635 177.408 197.63 177.486 197.562 177.599C197.524 177.663 197.458 177.751 197.351 177.83C197.238 177.914 197.104 177.97 196.961 177.99L196.82 177ZM196.64 177.3L195.643 177.229C195.613 177.637 195.747 178.123 195.891 178.556L196.84 178.24L197.789 177.924C197.722 177.725 197.681 177.575 197.658 177.467C197.633 177.347 197.641 177.328 197.637 177.371L196.64 177.3ZM196.84 178.24L195.907 178.599C195.964 178.749 196.064 179.036 196.211 179.476L197.16 179.16L198.109 178.844C197.962 178.404 197.849 178.078 197.773 177.881L196.84 178.24ZM197.16 179.16L196.22 179.502C196.381 179.944 196.575 180.472 196.802 181.087L197.74 180.74L198.678 180.393C198.452 179.781 198.259 179.256 198.1 178.818L197.16 179.16ZM197.74 180.74L196.805 181.093C197.029 181.687 197.267 182.335 197.519 183.037L198.46 182.7L199.401 182.363C199.146 181.651 198.904 180.993 198.675 180.387L197.74 180.74ZM198.46 182.7L197.521 183.043C197.775 183.738 198.035 184.446 198.302 185.167L199.24 184.82L200.178 184.473C199.912 183.754 199.652 183.049 199.399 182.357L198.46 182.7ZM199.24 184.82L198.304 185.173C198.569 185.874 198.813 186.541 199.037 187.174L199.98 186.84L200.923 186.506C200.693 185.859 200.444 185.179 200.176 184.467L199.24 184.82ZM199.98 186.84V187.84H200.02V186.84V185.84H199.98V186.84ZM200.02 186.84L200.964 187.169C201.18 186.549 201.402 185.889 201.63 185.191L200.68 184.88L199.73 184.569C199.505 185.257 199.287 185.905 199.076 186.511L200.02 186.84ZM200.68 184.88L201.627 185.202C201.868 184.491 202.103 183.788 202.33 183.091L201.38 182.78L200.43 182.469C200.204 183.159 199.972 183.855 199.733 184.558L200.68 184.88ZM201.38 182.78L202.332 183.085C202.558 182.382 202.77 181.732 202.969 181.136L202.02 180.82L201.071 180.504C200.87 181.108 200.655 181.765 200.428 182.475L201.38 182.78ZM202.02 180.82L202.971 181.13C203.171 180.516 203.344 179.982 203.491 179.528L202.54 179.22L201.589 178.912C201.442 179.365 201.269 179.897 201.069 180.51L202.02 180.82ZM202.54 179.22L203.491 179.528C203.638 179.074 203.746 178.725 203.806 178.498L202.84 178.24L201.874 177.982C201.828 178.155 201.735 178.46 201.589 178.912L202.54 179.22ZM202.84 178.24L203.805 178.503C203.924 178.067 204.029 177.572 203.97 177.159L202.98 177.3L201.99 177.441C201.984 177.396 201.993 177.411 201.976 177.528C201.96 177.632 201.929 177.78 201.875 177.977L202.84 178.24ZM202.98 177.3L203.97 177.159C203.951 177.026 203.915 176.843 203.831 176.662C203.758 176.505 203.536 176.119 203.036 176.019L202.84 177L202.644 177.981C202.211 177.894 202.046 177.565 202.019 177.508C201.981 177.427 201.982 177.387 201.99 177.441L202.98 177.3ZM202.84 177V178H206.66V177V176H202.84V177ZM206.66 177V176C206.14 176 205.827 176.337 205.692 176.574C205.572 176.783 205.53 177 205.51 177.139L206.5 177.28L207.49 177.421C207.497 177.373 207.494 177.45 207.428 177.566C207.391 177.632 207.315 177.741 207.178 177.837C207.03 177.941 206.849 178 206.66 178V177ZM206.5 177.28L205.51 177.139C205.475 177.381 205.5 177.626 205.533 177.826C205.568 178.041 205.626 178.28 205.698 178.535L206.66 178.26L207.622 177.985C207.561 177.774 207.525 177.616 207.507 177.504C207.486 177.377 207.498 177.366 207.49 177.421L206.5 177.28ZM206.66 178.26L205.704 178.554C205.757 178.725 205.85 179.03 205.983 179.47L206.94 179.18L207.897 178.89C207.764 178.45 207.67 178.142 207.616 177.966L206.66 178.26ZM206.94 179.18L205.991 179.496C206.137 179.934 206.31 180.458 206.509 181.07L207.46 180.76L208.411 180.45C208.21 179.835 208.036 179.306 207.889 178.864L206.94 179.18ZM207.46 180.76L206.511 181.076C206.71 181.672 206.922 182.322 207.148 183.025L208.1 182.72L209.052 182.415C208.825 181.705 208.61 181.048 208.409 180.444L207.46 180.76ZM208.1 182.72L207.155 183.047C207.392 183.731 207.622 184.429 207.846 185.14L208.8 184.84L209.754 184.54C209.524 183.811 209.288 183.095 209.045 182.393L208.1 182.72ZM208.8 184.84L207.853 185.162C208.093 185.868 208.32 186.535 208.533 187.162L209.48 186.84L210.427 186.518C210.213 185.891 209.987 185.225 209.747 184.518L208.8 184.84ZM209.48 186.84V187.84H209.52V186.84V185.84H209.48V186.84ZM209.52 186.84L210.456 187.191C210.696 186.552 210.949 185.879 211.216 185.173L210.28 184.82L209.344 184.467C209.078 185.174 208.824 185.848 208.584 186.489L209.52 186.84ZM210.28 184.82L211.216 185.173C211.483 184.463 211.745 183.76 211.999 183.063L211.06 182.72L210.121 182.377C209.869 183.067 209.61 183.763 209.344 184.467L210.28 184.82ZM211.06 182.72L211.996 183.073C212.263 182.365 212.51 181.702 212.738 181.087L211.8 180.74L210.862 180.393C210.636 181.004 210.39 181.662 210.124 182.367L211.06 182.72ZM211.8 180.74L212.738 181.087C212.965 180.472 213.159 179.944 213.32 179.502L212.38 179.16L211.44 178.818C211.281 179.256 211.088 179.781 210.862 180.393L211.8 180.74ZM212.38 179.16L213.32 179.502C213.479 179.063 213.594 178.734 213.656 178.534L212.7 178.24L211.744 177.946C211.699 178.092 211.601 178.377 211.44 178.818L212.38 179.16ZM212.7 178.24L213.651 178.548C213.734 178.294 213.799 178.05 213.836 177.824C213.871 177.615 213.896 177.344 213.838 177.07L212.86 177.28L211.882 177.49C211.871 177.438 211.873 177.41 211.873 177.419C211.873 177.425 211.871 177.449 211.864 177.496C211.848 177.59 211.813 177.733 211.749 177.932L212.7 178.24ZM212.86 177.28L213.85 177.139C213.83 177 213.788 176.783 213.668 176.574C213.533 176.337 213.22 176 212.7 176V177V178C212.511 178 212.33 177.941 212.182 177.837C212.045 177.741 211.969 177.632 211.932 177.566C211.866 177.45 211.863 177.373 211.87 177.421L212.86 177.28ZM212.7 177V178H216.32V177V176H212.7V177ZM216.32 177L216.179 176.01C215.863 176.055 215.635 176.222 215.525 176.309C215.393 176.415 215.272 176.541 215.164 176.665L215.92 177.32L216.676 177.975C216.707 177.939 216.731 177.913 216.75 177.895C216.768 177.876 216.777 177.869 216.775 177.871C216.774 177.871 216.752 177.889 216.71 177.911C216.671 177.932 216.585 177.972 216.461 177.99L216.32 177ZM215.92 177.32L215.187 176.64C214.924 176.924 214.675 177.323 214.437 177.771L215.32 178.24L216.203 178.709C216.419 178.304 216.57 178.09 216.653 178L215.92 177.32ZM215.32 178.24L214.438 177.769C214.316 177.998 214.138 178.369 213.911 178.862L214.82 179.28L215.729 179.697C215.955 179.204 216.111 178.882 216.202 178.711L215.32 178.24ZM214.82 179.28L213.916 178.853C213.686 179.34 213.423 179.913 213.128 180.57L214.04 180.98L214.952 181.39C215.244 180.74 215.501 180.18 215.724 179.707L214.82 179.28ZM214.04 180.98L213.128 180.57C212.833 181.228 212.531 181.912 212.223 182.622L213.14 183.02L214.057 183.418C214.362 182.715 214.661 182.039 214.952 181.39L214.04 180.98ZM213.14 183.02L212.225 182.615C211.917 183.312 211.622 183.989 211.341 184.646L212.26 185.04L213.179 185.434C213.458 184.784 213.749 184.115 214.055 183.425L213.14 183.02ZM212.26 185.04L211.344 184.639C211.061 185.285 210.818 185.86 210.613 186.364L211.54 186.74L212.467 187.116C212.662 186.633 212.899 186.075 213.176 185.441L212.26 185.04ZM211.54 186.74L210.608 186.378C210.421 186.857 210.287 187.218 210.211 187.444L211.16 187.76L212.109 188.076C212.167 187.902 212.285 187.583 212.472 187.102L211.54 186.74ZM211.16 187.76L210.203 187.47C210.071 187.904 209.949 188.412 210.01 188.841L211 188.7L211.99 188.559C211.998 188.614 211.986 188.607 212.006 188.493C212.023 188.391 212.058 188.246 212.117 188.05L211.16 187.76ZM211 188.7L210.01 188.841C210.03 188.984 210.072 189.187 210.178 189.386C210.289 189.594 210.54 189.91 210.996 189.986L211.16 189L211.324 188.014C211.7 188.076 211.884 188.336 211.942 188.444C211.995 188.543 211.996 188.603 211.99 188.559L211 188.7ZM211.16 189V188H207.76V189V190H211.16V189ZM207.76 189L207.924 189.986C208.38 189.91 208.631 189.594 208.742 189.386C208.848 189.187 208.89 188.984 208.91 188.841L207.92 188.7L206.93 188.559C206.924 188.603 206.925 188.543 206.978 188.444C207.036 188.336 207.22 188.076 207.596 188.014L207.76 189ZM207.92 188.7L208.91 188.841C208.971 188.412 208.849 187.904 208.717 187.47L207.76 187.76L206.803 188.05C206.862 188.246 206.897 188.391 206.914 188.493C206.934 188.607 206.922 188.614 206.93 188.559L207.92 188.7ZM207.76 187.76L208.716 187.466C208.659 187.28 208.555 186.963 208.409 186.524L207.46 186.84L206.511 187.156C206.658 187.597 206.755 187.893 206.804 188.054L207.76 187.76ZM207.46 186.84L208.411 186.532C208.262 186.07 208.079 185.529 207.864 184.911L206.92 185.24L205.976 185.569C206.187 186.177 206.365 186.703 206.509 187.148L207.46 186.84ZM206.92 185.24L207.867 184.918C207.651 184.285 207.416 183.614 207.161 182.903L206.22 183.24L205.279 183.577C205.53 184.28 205.762 184.941 205.973 185.562L206.92 185.24ZM206.22 183.24L207.163 182.908C206.91 182.188 206.657 181.468 206.403 180.748L205.46 181.08L204.517 181.412C204.77 182.132 205.023 182.852 205.277 183.572L206.22 183.24ZM205.46 181.08L206.405 180.753C206.152 180.02 205.912 179.326 205.685 178.672L204.74 179L203.795 179.328C204.022 179.981 204.262 180.674 204.515 181.407L205.46 181.08ZM204.74 179V178H204.7V179V180H204.74V179ZM204.7 179L203.755 178.672C203.528 179.326 203.288 180.02 203.035 180.753L203.98 181.08L204.925 181.407C205.178 180.674 205.418 179.981 205.645 179.328L204.7 179ZM203.98 181.08L203.037 180.748C202.783 181.468 202.53 182.188 202.277 182.908L203.22 183.24L204.163 183.572C204.417 182.852 204.67 182.132 204.923 181.412L203.98 181.08ZM203.22 183.24L202.271 182.924C202.032 183.642 201.806 184.313 201.593 184.938L202.54 185.26L203.487 185.582C203.701 184.953 203.928 184.278 204.169 183.556L203.22 183.24ZM202.54 185.26L201.596 184.931C201.381 185.547 201.2 186.078 201.051 186.524L202 186.84L202.949 187.156C203.094 186.722 203.272 186.199 203.484 185.589L202.54 185.26ZM202 186.84L201.043 186.55C200.91 186.99 200.817 187.295 200.764 187.466L201.72 187.76L202.676 188.054C202.73 187.878 202.824 187.57 202.957 187.13L202 186.84ZM201.72 187.76L200.757 187.489C200.634 187.927 200.533 188.413 200.589 188.832L201.58 188.7L202.571 188.568C202.575 188.598 202.568 188.573 202.584 188.462C202.599 188.36 202.63 188.218 202.683 188.031L201.72 187.76ZM201.58 188.7L200.59 188.841C200.609 188.974 200.645 189.157 200.729 189.338C200.802 189.495 201.024 189.881 201.524 189.981L201.72 189L201.916 188.019C202.349 188.106 202.514 188.435 202.541 188.492C202.579 188.573 202.578 188.613 202.57 188.559L201.58 188.7ZM201.72 189V188H198.32V189V190H201.72V189ZM218.36 188.56L217.883 189.439L217.889 189.442L218.36 188.56ZM216.7 186.82L217.616 186.42L217.616 186.42L216.7 186.82ZM217.54 180.68L216.866 179.941L216.861 179.946L217.54 180.68ZM224.06 179.66L223.874 180.643L223.874 180.643L224.06 179.66ZM225.52 180.04H226.52V179.393L225.93 179.128L225.52 180.04ZM225.52 180.44H224.52V180.553L224.545 180.664L225.52 180.44ZM225.92 182.18L225.195 182.87L227.711 185.512L226.894 181.956L225.92 182.18ZM224.4 181.32L224.02 182.245L224.027 182.248L224.034 182.251L224.4 181.32ZM219.94 181.16L220.285 182.098L220.292 182.096L220.299 182.093L219.94 181.16ZM218.7 182.2L217.854 181.666L217.849 181.674L217.844 181.682L218.7 182.2ZM218.74 186.48L217.904 187.03L217.911 187.04L218.74 186.48ZM220.12 187.5L219.816 188.453L219.816 188.453L220.12 187.5ZM224.46 187.34L224.036 186.434L224.028 186.438L224.46 187.34ZM225.72 186.48H226.72V183.517L224.924 185.874L225.72 186.48ZM225.72 186.88H224.72V186.953L224.73 187.025L225.72 186.88ZM225.92 188.24L226.564 189.005L226.99 188.646L226.909 188.095L225.92 188.24ZM224.42 188.88L224.145 187.918L224.14 187.92L224.42 188.88ZM221.64 189.2V188.2C220.338 188.2 219.429 187.997 218.83 187.678L218.36 188.56L217.889 189.442C218.891 189.977 220.168 190.2 221.64 190.2V189.2ZM218.36 188.56L218.836 187.681C218.221 187.347 217.836 186.925 217.616 186.42L216.7 186.82L215.783 187.22C216.203 188.182 216.925 188.919 217.883 189.439L218.36 188.56ZM216.7 186.82L217.616 186.42C217.359 185.83 217.22 185.143 217.22 184.34H216.22H215.22C215.22 185.377 215.4 186.343 215.783 187.22L216.7 186.82ZM216.22 184.34H217.22C217.22 182.889 217.608 181.978 218.218 181.414L217.54 180.68L216.861 179.946C215.711 181.009 215.22 182.538 215.22 184.34H216.22ZM217.54 180.68L218.213 181.419C218.858 180.832 219.879 180.46 221.44 180.46V179.46V178.46C219.586 178.46 218.008 178.901 216.866 179.941L217.54 180.68ZM221.44 179.46V180.46C222.442 180.46 223.249 180.525 223.874 180.643L224.06 179.66L224.245 178.677C223.457 178.529 222.517 178.46 221.44 178.46V179.46ZM224.06 179.66L223.874 180.643C224.583 180.776 224.963 180.886 225.109 180.952L225.52 180.04L225.93 179.128C225.543 178.954 224.949 178.81 224.245 178.677L224.06 179.66ZM225.52 180.04H224.52V180.44H225.52H226.52V180.04H225.52ZM225.52 180.44L224.545 180.664L224.945 182.404L225.92 182.18L226.894 181.956L226.494 180.216L225.52 180.44ZM225.92 182.18L226.644 181.49C226.217 181.042 225.532 180.691 224.765 180.389L224.4 181.32L224.034 182.251C224.76 182.536 225.089 182.758 225.195 182.87L225.92 182.18ZM224.4 181.32L224.779 180.395C223.874 180.023 222.794 179.86 221.58 179.86V180.86V181.86C222.631 181.86 223.432 182.004 224.02 182.245L224.4 181.32ZM221.58 180.86V179.86C220.887 179.86 220.218 179.981 219.581 180.227L219.94 181.16L220.299 182.093C220.701 181.939 221.125 181.86 221.58 181.86V180.86ZM219.94 181.16L219.594 180.222C218.858 180.493 218.278 180.995 217.854 181.666L218.7 182.2L219.545 182.734C219.761 182.392 220.008 182.201 220.285 182.098L219.94 181.16ZM218.7 182.2L217.844 181.682C217.403 182.411 217.24 183.34 217.24 184.36H218.24H219.24C219.24 183.513 219.383 183.003 219.555 182.718L218.7 182.2ZM218.24 184.36H217.24C217.24 185.371 217.423 186.298 217.904 187.03L218.74 186.48L219.575 185.93C219.39 185.649 219.24 185.162 219.24 184.36H218.24ZM218.74 186.48L217.911 187.04C218.375 187.726 219.023 188.201 219.816 188.453L220.12 187.5L220.423 186.547C220.043 186.426 219.771 186.22 219.568 185.92L218.74 186.48ZM220.12 187.5L219.816 188.453C220.519 188.677 221.291 188.78 222.12 188.78V187.78V186.78C221.455 186.78 220.893 186.697 220.423 186.547L220.12 187.5ZM222.12 187.78V188.78C223.161 188.78 224.101 188.62 224.891 188.242L224.46 187.34L224.028 186.438C223.592 186.647 222.972 186.78 222.12 186.78V187.78ZM224.46 187.34L224.883 188.246C225.541 187.938 226.148 187.567 226.515 187.086L225.72 186.48L224.924 185.874C224.864 185.953 224.631 186.155 224.036 186.434L224.46 187.34ZM225.72 186.48H224.72V186.88H225.72H226.72V186.48H225.72ZM225.72 186.88L224.73 187.025L224.93 188.385L225.92 188.24L226.909 188.095L226.709 186.735L225.72 186.88ZM225.92 188.24L225.275 187.475C225.201 187.537 224.891 187.705 224.145 187.918L224.42 188.88L224.694 189.842C225.442 189.628 226.131 189.369 226.564 189.005L225.92 188.24ZM224.42 188.88L224.14 187.92C223.529 188.098 222.705 188.2 221.64 188.2V189.2V190.2C222.814 190.2 223.843 190.089 224.699 189.84L224.42 188.88Z" fill="black" mask="url(#path-4-outside-2_627_16)"/>
<path d="M176.5 180H177L180.5 184H179L176.5 186V180Z" fill="#D9D9D9"/>
<path d="M181.774 185.525H179.887C179.853 185.525 179.821 185.542 179.803 185.57C179.784 185.599 179.782 185.635 179.796 185.666L181.237 188.879L179.56 189.475L178.092 186.154C178.08 186.127 178.055 186.107 178.026 186.099C178.012 186.095 177.997 186.094 177.982 186.097L177.942 186.113L176.1 187.419V179.259L181.774 185.525ZM176.667 180.723H176.566V186.334C176.566 186.371 176.588 186.406 176.621 186.423C176.654 186.44 176.694 186.437 176.725 186.415L177.677 185.739L177.678 185.74L178.245 185.339L178.528 185.963V185.964L179.782 188.812C179.804 188.861 179.859 188.884 179.908 188.865L180.515 188.641C180.541 188.631 180.562 188.611 180.572 188.585C180.583 188.56 180.583 188.531 180.571 188.506L179.371 185.855L179.015 185.062H180.5C180.54 185.062 180.576 185.039 180.592 185.003C180.608 184.967 180.601 184.925 180.574 184.896L176.741 180.655L176.667 180.723Z" fill="white" stroke="black" stroke-width="0.2" stroke-linejoin="round"/>
<path d="M176.6 180.6L180.5 184.9V185H178.9L180.5 188.6L179.9 188.8H179.8L178.3 185.3L176.6 186.4V180.6Z" fill="black"/>
<defs>
<filter id="filter0_f_627_16" x="0" y="0" width="360" height="360" filterUnits="userSpaceOnUse" color-interpolation-filters="sRGB">
<feFlood flood-opacity="0" result="BackgroundImageFix"/>
<feBlend mode="normal" in="SourceGraphic" in2="BackgroundImageFix" result="shape"/>
<feGaussianBlur stdDeviation="70" result="effect1_foregroundBlur_627_16"/>
</filter>
</defs>
</svg>
